<?xml version="1.0" encoding="utf-8"?>
<!-- Generator: Adobe Illustrator 22.1.0, SVG Export Plug-In . SVG Version: 6.00 Build 0)  -->
<svg version="1.1" id="Layer_1" xmlns="http://www.w3.org/2000/svg" xmlns:xlink="http://www.w3.org/1999/xlink" x="0px" y="0px"
	 viewBox="0 0 850.4 850.4" style="enable-background:new 0 0 850.4 850.4;" xml:space="preserve">
<style type="text/css">
	.st0{fill:#FFFCF0;}
</style>
<g>
	<path class="st0" d="M412.2,293.7c0,1,0,2.3-0.1,3c-0.1,0.8,0,2.3,0.3,4.1c0.4,2.5,0.6,3.2,1.4,4.7c0.5,1,1.3,2.3,1.8,3
		c0.9,1.2,1.5,1.5,1.2,0.7c-1.4-4.9-1.3-6.2,0.2-3.3c0.5,0.8,0.9,1.6,1,1.8c0.3,0.4,0.6,0.1,0.4-0.3c-0.1-0.2-0.6-1.8-1.1-3.5
		c-0.5-1.7-1.1-3.4-1.3-3.8c-0.3-0.5-0.4-1.5-0.4-3.7c-0.1-4-0.3-4.7-1.9-6.3c-1.1-1.1-1.7-1.8-4-4.4c-1.1-1.2-0.8-0.2,0.8,3.1
		C412.2,291.9,412.2,292,412.2,293.7z"/>
	<path class="st0" d="M406.2,348.1c0,0.1,0.3,0.1,0.6,0.1c0.3-0.1,1.2-0.2,1.8-0.3c1.6-0.2,2.3-0.7,2.9-2c0.3-0.6,0.8-1.4,1.1-1.8
		c0.8-1,0.6-1.4-0.4-0.6c-0.8,0.6-3.5,2.7-4.2,3.1C407.1,347.1,406.2,347.9,406.2,348.1z"/>
	<path class="st0" d="M409.8,334.9c-0.3,0.6,0,2.1,0.4,3c0.5,1,1.7-0.7,1.5-2C411.4,334.2,410.3,333.7,409.8,334.9z"/>
	<path class="st0" d="M406.7,339.4c-0.3,0.4-0.2,1.6,0.1,2.2c0.3,0.5,1-0.6,1-1.8C407.7,339.1,407.1,338.8,406.7,339.4z"/>
	<path class="st0" d="M404.9,283.9c0.5,0.5,1,1.3,1.2,1.7c0.2,0.4,0.4,0.9,0.5,1c0.3,0.5,0.4-0.1,0.1-0.9c-0.1-0.4-0.2-1.2-0.2-1.8
		s-0.2-1.5-0.4-2c-0.4-1-3-3.7-3.3-3.5c-0.1,0.1,0.1,1.1,0.5,2.3C403.9,282.4,404.3,283.2,404.9,283.9z"/>
	<path class="st0" d="M370.7,349c0-1.5,0-2.7-0.1-2.7c-0.1,0-0.3,0.4-0.4,0.8c-0.2,0.6-0.4,0.8-0.8,0.8c-0.6,0-1.7,1.1-2.3,2.2
		c-0.5,1-0.5,2.8,0.1,4.1c0.4,1,1,1.4,1.2,0.8c0.1-0.2,0.3,0,0.7,0.5c0.3,0.4,1.2,1.4,1.9,2.1c1.2,1.2,1.8,1.5,1.8,1.1
		c0-0.1-0.2-0.4-0.4-0.7C371.1,356.2,370.7,353.8,370.7,349z"/>
	<path class="st0" d="M455.7,113.9c2.3,2.4,5.2,4,8,4.4c2.2,0.3,5.4-0.2,6.3-1c0.2-0.2,0.7-1.2,1-2.3c0.5-1.7,0.6-2.3,0.6-4.7
		c0-2.5,0-3-0.6-4.4c-0.8-2.1-1.6-3.3-3.3-5c-2.3-2.3-4.6-3.5-7.4-3.9c-2.6-0.4-5.9,0.5-7.1,1.8c-1.6,1.7-2,6.4-0.9,9.6
		C453.1,110.6,454.1,112.2,455.7,113.9z"/>
	<path class="st0" d="M372.2,350.3c-0.1-0.3-0.3-0.5-0.4-0.5c-0.3,0-0.3,0.2-0.2,1.1c0.1,0.6,0.3,1.5,0.5,2c0.7,1.5,1,1.2,0.6-0.6
		C372.4,351.5,372.3,350.6,372.2,350.3z"/>
	<path class="st0" d="M417.7,328.5c-0.3,0-1.6,1.2-2.6,2.5c-2.3,3-2.7,3.6-2.7,3.9c0,0.3,0.1,0.3,1.1-0.4c0.3-0.2,0.8-0.4,1-0.4
		c0.7,0,3.1-2,3.2-2.6C418.1,330.3,418,328.5,417.7,328.5z"/>
	<path class="st0" d="M474,397c0-0.6,0.2-1.8,0.5-2.5c0.3-0.8,0.6-1.8,0.6-2.4c0.1-0.6,0.4-1.6,0.7-2.3c0.4-1.2,0.4-1.4,0.2-4.6
		c-0.1-1.8-0.3-3.4-0.4-3.5c-0.1-0.1-0.3,0.4-0.4,1.2c-0.4,2.1-0.7,2.9-1.3,3.7c-0.7,0.9-1.4,2.7-1.4,3.4c0,0.3-0.2,1-0.4,1.4
		c-0.3,0.5-0.4,1.2-0.4,1.7c0,0.8,0.7,2.8,1.5,4.4C473.6,398.6,474,398.3,474,397z"/>
	<path class="st0" d="M465.5,368.8c0.4,3.7,0.7,3.3,1.5-2.1c0.1-0.9,0.3-2.1,0.5-2.7c0.1-0.6,0.2-1.5,0.1-2
		c-0.2-1.1-1.6-3.9-1.9-3.9c-0.1,0-0.2,0.2-0.1,0.4c0.2,0.5,0.6,2.7,0.6,3.3c0,0.4-0.2,0.3-0.8-0.5c-0.4-0.5-0.9-0.9-1.1-0.9
		c-0.5,0-0.4,2,0.3,4.1C464.9,365.5,465.3,367.3,465.5,368.8z"/>
	<path class="st0" d="M456.4,267.4c0.3-0.5-0.3-0.8-1.3-0.8c-1.1,0.1-2,0.4-1.8,0.8C453.5,267.7,456.2,267.7,456.4,267.4z"/>
	<path class="st0" d="M462,276.5c0.6,0.3,1.4,0.9,1.8,1.2c0.4,0.3,1,0.8,1.3,1c0.8,0.5,1.2,0.5,1-0.1c-0.1-0.3-0.1-0.8-0.1-1.2
		c0-0.5-0.3-1.1-1-2c-1-1.2-1-1.3-1-2.7c0-0.8-0.1-1.7-0.2-1.9c-0.3-0.5-0.9-0.6-0.9-0.1c0,0.2-0.3,0.8-0.7,1.3
		c-0.6,1-0.7,1-1.1,0.8c-0.6-0.4-0.8-0.1-0.8,1C460.2,275.1,460.7,275.8,462,276.5z"/>
	<path class="st0" d="M456.7,294.2c-0.1,0.1,0.1,0.4,0.3,0.7c0.5,0.5,0.9,0.6,1,0.1C458.1,294.7,456.9,294,456.7,294.2z"/>
	<path class="st0" d="M489.7,294.8c0,0.1,0.4,0.3,0.7,0.4c0.4,0.1,0.9,0.3,1.2,0.4c0.3,0.2,0.9,0.4,1.2,0.5c0.4,0.1,0.7,0.2,0.7,0.2
		c0,0,0.2,0,0.4-0.1c0.5-0.2,0.4-0.7-0.2-1.3c-0.5-0.5-0.8-0.6-1.8-0.6C490.4,294.3,489.6,294.5,489.7,294.8z"/>
	<path class="st0" d="M477.7,280.1c-0.2-0.1-0.4,0.1-0.6,0.5c-0.1,0.3-0.3,0.8-0.4,1.1c-0.1,0.2-0.3,0.8-0.5,1.2
		c-0.2,0.4-0.6,1.2-1,1.8c-0.6,0.8-0.8,1.3-0.8,2.1c0,1.1,0.6,2.4,1.2,2.6c0.2,0.1,0.3,0.2,0.3,0.4c0,0.1,0.1,0.4,0.3,0.5
		c0.6,0.6,1.8-0.1,2.1-1.2c0.2-0.8,3.6-3,5.3-3.4c0.8-0.2,2.1-0.5,3.1-0.8c0.9-0.2,2.2-0.4,2.8-0.4c0.6,0,1.1-0.1,1.1-0.2
		c0-0.3-1.9-1.1-3.5-1.6c-0.6-0.2-1.2-0.3-1.2-0.4c-0.2-0.2,0.8-1,1.1-1c0.2,0,0.4-0.1,0.4-0.2c0-0.3-1.8-0.3-2.7,0
		c-0.4,0.1-1.1,0.5-1.5,0.8c-0.4,0.3-1.2,0.9-1.7,1.2c-1,0.7-1.7,1.6-2.1,2.9c-0.2,0.6-0.5,1-1,1.3c-1.1,0.7-1.4,0.4-0.9-1.2
		C478.2,284.5,478.2,280.3,477.7,280.1z"/>
	<path class="st0" d="M483.3,271.5c0.4-0.5,0.4-1.2,0-1.2c-0.4,0-0.6,0.6-0.4,1.2C483,271.9,483,271.9,483.3,271.5z"/>
	<path class="st0" d="M487.8,472.9c-0.2,0.1-0.4,0.3-0.4,0.5c0,0.4,0.5,0.3,0.6-0.2C488.1,472.8,488,472.8,487.8,472.9z"/>
	<path class="st0" d="M471.8,270.8c0.8,0.6,1.8,1.5,2.2,2c0.4,0.5,0.9,1.1,1.2,1.3c0.3,0.2,0.8,0.7,1.1,1.2c0.4,0.6,0.7,0.8,0.8,0.6
		c0.4-0.4,0.8-1.9,0.8-3.2c0-1.6-0.6-2.9-1.7-3.6c-0.8-0.5-3.4-1.5-4-1.5c-0.5,0-0.3,0.6,0.3,0.9c1,0.6,2.2,1.7,2,1.8
		c-0.1,0.1-0.9-0.1-1.8-0.3c-0.9-0.3-1.8-0.4-2.1-0.4C470.4,269.7,470.6,269.9,471.8,270.8z"/>
	<path class="st0" d="M452.7,287.6c0,0.1,0.7,0.8,1.6,1.5c0.8,0.7,1.9,1.6,2.3,2.1c0.4,0.5,1.2,1.1,1.8,1.4c1.3,0.6,1.4,0.6,1.6,0.3
		c0.2-0.3-0.8-2-1.5-2.6C457.8,289.7,452.7,287.3,452.7,287.6z"/>
	<path class="st0" d="M497.8,289.8l1.1,1c0.8,0.8,1.3,1,1.8,1c0.6,0,0.8-0.1,0.8-0.5c0-0.3-0.2-0.7-0.5-1c-0.4-0.4-0.7-0.5-1.8-0.5
		L497.8,289.8z"/>
	<path class="st0" d="M498.6,288.5c0.6,0.5,0.8,0.5,1,0.2c0.4-0.7-0.9-2-2-2c-0.3,0-0.3,0.1,0.1,0.7
		C497.9,287.7,498.3,288.2,498.6,288.5z"/>
	<path class="st0" d="M487.4,451.8c0.7,0.4,1.6,0.9,2.1,1.1c0.4,0.1,1,0.2,1.2,0.2c0.3-0.1,0.8-0.2,1.3-0.2c0.9-0.2,2.6-0.9,2.6-1.2
		c0-0.1-1-0.2-2.3-0.2c-2.2,0-2.3,0-3.5-0.7c-0.6-0.4-1.5-0.8-2-0.9c-0.7-0.1-0.8-0.1-0.8,0.5C486.1,450.9,486.4,451.2,487.4,451.8z
		"/>
	<path class="st0" d="M447.3,276.1c-0.7-1.5-0.7-1.9-0.2-2.1c0.6-0.2,0.4-0.8-0.3-0.8c-1.1,0-2,1.4-2,2.9c0,0.8,0.1,1.1,1,1.9
		C447.5,279.9,448.5,278.8,447.3,276.1z"/>
	<path class="st0" d="M453.3,277.4c0.1,0.9,1,2.8,1.6,3.5c0.5,0.6,1,0.5,1-0.1c0-0.6,0.4-0.8,0.9-0.3c0.3,0.4,1.1,0.6,1.1,0.3
		c0-0.1-0.2-0.5-0.4-0.8c-0.7-1-1.2-3.2-0.9-4c0.2-0.5,0.2-0.9-0.2-1.8c-0.3-0.6-0.4-1.4-0.4-1.7c0-0.7-0.5-0.6-0.6,0.1
		c-0.1,0.8-0.4,1-0.9,0.6c-0.3-0.2-0.4-0.5-0.4-0.7c0-0.4-0.6-0.4-0.9,0.1c-0.4,0.9-0.5,2.6-0.2,3.3
		C453,276.2,453.2,276.9,453.3,277.4z"/>
	<path class="st0" d="M484.9,273.7c0.1-0.1,0.9-0.6,1.9-1.1c1-0.5,1.8-1,1.8-1.1c0-0.1-0.6-0.2-1.3-0.2c-1.2,0-1.3,0-2.2,1
		c-0.5,0.6-1,1.2-1,1.3C484.1,273.9,484.6,274,484.9,273.7z"/>
	<path class="st0" d="M497.3,285.5c0-0.3-0.6-0.6-0.8-0.4c-0.1,0.1-0.1,0.2,0,0.4C496.7,285.8,497.3,285.8,497.3,285.5z"/>
	<path class="st0" d="M447.1,574.1c-1.7-1.6-3.2-1.8-3.9-0.7c-0.5,0.7-0.2,1.6,0.6,1.9c0.3,0.1,1.3,0.2,2.3,0.2
		C448.4,575.5,448.5,575.3,447.1,574.1z"/>
	<path class="st0" d="M394.7,669.1c-0.9,0-2.6,1-3.9,2.3c-0.7,0.8-1.9,1.7-2.6,2.2c-0.7,0.4-1.6,1.2-2,1.7c-1.1,1.4-2.5,4.4-3.1,6.9
		c-0.7,2.9-1,3.5-3.3,6.6c-1.1,1.4-2.1,3-2.4,3.5c-0.3,0.5-0.8,1.5-1.2,2.1c-1.5,2.4-2.2,5.4-1.8,7.6c0.1,0.7,0.5,1.8,0.9,2.6
		c0.6,1.2,1,1.6,2.8,3c1.2,0.9,2.7,2,3.5,2.5c1.4,0.8,2.2,1.1,2.2,0.6c0-0.1-0.3-1-0.7-1.8c-1.4-3.4-2.5-6.7-2.5-7.5
		c0-1.2,0.9-2.7,2.8-4.7c1.5-1.6,2.8-3.6,4.3-6.4c0.9-1.7,1.4-4,1.7-7.2c0.2-2.5,0.4-3,1.1-4.8c0.8-2,1.6-3.1,2.1-3.1
		c0.5,0,2.1-1.6,2.6-2.5c0.7-1.3,0.8-2.4,0.4-3C395.3,669.4,395,669.1,394.7,669.1z"/>
	<path class="st0" d="M460.3,592.4c-1.7,2.7-2.4,4.7-1.7,4.9c0.9,0.4,1.5-0.5,2.1-3.2c0.3-1.1,0.5-2.1,0.6-2.3
		C461.7,591,460.9,591.4,460.3,592.4z"/>
	<path class="st0" d="M455.6,526.7c-0.4,0-0.6,2.4-0.4,3.2c0.2,0.7,0.9,0.8,1.1,0.3C456.7,529.2,456.2,526.7,455.6,526.7z"/>
	<path class="st0" d="M464.9,536.2c-0.7,0.4-0.7,0.4-1-2c-0.3-2.3-0.7-3.1-1.5-3c-1,0.1-1.4,0.9-1.5,3.3c-0.2,2.9-0.4,3.5-1.9,5
		c-0.7,0.7-1.5,1.7-1.6,2.1c-0.5,0.9-0.5,2.2-0.1,2.6c0.6,0.7,1.3,0.4,2.6-0.9c0.6-0.7,1.5-1.4,2-1.6c2-0.8,4.2-3.6,4.2-5.3
		C465.9,535.8,465.7,535.7,464.9,536.2z"/>
	<path class="st0" d="M459.5,650.9c-0.3-0.4-0.3-0.4-0.8,0c-0.3,0.2-0.7,0.8-0.9,1.3c-0.5,1.1-0.7,3.5-0.2,4
		C459.1,658,461,652.8,459.5,650.9z"/>
	<path class="st0" d="M463.6,669.6c-0.8-1.1-1.2-1.3-1.6-1c-0.2,0.2,0.1,0.6,1,1.5C464.8,671.9,465.2,671.6,463.6,669.6z"/>
	<path class="st0" d="M469.8,615.9c0.4-0.9,0.6-2.6,0.3-2.9c-0.2-0.2-2.7,1.6-3.2,2.3c-0.6,0.8-0.8,1.7-0.4,2.1
		C467.1,618.4,469.1,617.5,469.8,615.9z"/>
	<path class="st0" d="M467.3,585.4c-0.3-1.2-0.3-1.4,0.5-2.2c0.8-0.8,0.8-1.2,0.3-1.2c-0.7,0-1.1-0.2-1-0.5c0-0.1,0.2-0.7,0.3-1.3
		c0.2-0.7,0.4-1.1,0.8-1.3c0.3-0.1,0.9-0.5,1.5-0.9c0.8-0.6,0.9-0.8,0.7-1c-0.2-0.2-0.7-0.3-1.2-0.3c-1.2,0-1.5-0.3-1.5-1.7v-1.1
		l1.4-0.7c2.5-1.2,3.4-2.5,2.1-3.4c-0.5-0.4-0.7-0.4-2,0c-2.1,0.6-4,1.6-4.5,2.3c-0.5,0.8-0.5,2,0,3.8c0.3,1.2,0.3,2.2,0.2,4.9
		c-0.1,3-0.1,3.7,0.3,5c0.4,1.6,1.9,5.7,2.1,6.1c0.1,0.1,0.3,0.3,0.4,0.3C467.8,592.3,467.6,586.5,467.3,585.4z"/>
	<path class="st0" d="M396.8,657.3c-0.8,0.8-1.4,1.1-2,1.2c-1.7,0.3-2.5,0.8-4.5,3c-1.9,2.1-4.1,5.4-4.4,6.6c-0.1,0.3-0.1,0.7,0,0.9
		c0.1,0.4,0.5,0.3,3.5-0.6c2.8-0.9,3.4-1.2,5.4-2.9c0.9-0.8,2.4-2,3.3-2.7c2.7-2.1,3.7-4,3.2-5.8
		C400.8,655.2,398.7,655.3,396.8,657.3z"/>
	<path class="st0" d="M455,506.1c0-1.8-0.1-2.2-0.3-2.2c-0.2,0-0.3,0.1-0.3,0.2c0,0.1-0.5,0.8-1.1,1.5c-0.6,0.7-1.6,2.3-2.2,3.5
		c-0.9,1.7-1.2,2.6-1.5,4.2c-0.3,2.1-0.7,3.3-1.2,4c-0.2,0.3-1.6,1.7-3.2,3.1c-2,1.8-3.2,3.1-3.7,4c-0.5,0.7-1.3,1.8-1.9,2.3
		c-2.9,2.6-4,7.7-3.2,14.4c0.6,5.4,0.7,9,0.3,10.5c-0.6,2.2-2.1,4.4-5.3,8c-2.1,2.4-2.4,2.7-3.9,4l-0.9,0.8l0.6-0.9
		c0.4-0.5,0.8-1,1-1.2c0.7-0.7,2.3-3.3,2.5-4.2c0.8-3,1.2-7,0.7-6.8c-0.2,0.1-0.5,0.8-0.8,1.5c-0.8,2.2-1.9,4.2-2.6,5
		c-1.8,1.9-4.6,4.2-4.8,4.1c-0.1-0.1-0.3-0.7-0.5-1.5c-0.2-1-0.2-1.7-0.1-2.9c0.1-0.8,0.4-2.2,0.5-3.1c0.3-2.4,2.2-5.9,4.4-8.2
		c2.8-2.9,3.4-4.6,4.1-10.7c0.4-3.9,0.4-4.9,0.1-5.8c-0.2-0.6-0.3-0.5-0.6,1.1c-0.4,2.5-1.6,5.9-2.7,8.1c-0.8,1.5-1.4,2.3-2.5,3.4
		c-1.6,1.5-3.8,2.8-4.8,2.8c-0.6,0-2.6-0.8-6.6-2.6c-0.8-0.4-2.4-1-3.6-1.5c-1.2-0.5-2.5-1.1-3-1.5c-0.8-0.6-3.4-3.9-5.4-6.6
		c-0.5-0.6-1-1.2-1.1-1.2c-0.7,0,0.3,4.2,1.6,6.6c1.3,2.3,2.4,3.5,4.7,4.7c0.9,0.5,2,1.1,2.3,1.5c1.7,1.4,3.2,6.2,4.3,13.7
		c1.1,7.6,1.1,7.6,2.5,9.3c0.4,0.5,0.7,1.1,0.7,1.2c-0.1,0.4-2.3,1.1-3.3,1.1c-1.3,0-3.1-0.6-6.8-2.5c-2.6-1.3-3.9-2.1-4.9-3
		c-0.7-0.6-1.4-1.2-1.5-1.2c-0.2,0-1-1.3-2.3-3.6c-1.4-2.5-3.3-7.9-3.8-10.7c-0.4-2.2-0.4-7.9-0.1-10c0.7-4.5,1.4-8.6,1.6-9.6
		c0.3-1.9,0.3-3.7-0.4-7c-0.6-3.5-0.6-5,0.2-8.1c1.6-6.7,6.9-15.3,14.1-23.2c2.3-2.5,2.7-3.1,2.1-3.3c-0.5-0.2-1.2,0.2-2.7,1.4
		c-0.7,0.6-1.3,1-1.3,1c0,0-0.1-0.6-0.2-1.4c-0.2-1.8-1.3-5-2.5-7.5c-0.5-1.1-1.2-2.5-1.4-3.1c-0.4-1.1-0.4-1.3,0-2.8
		c0.4-1.9,0.5-2.6,0.1-4.1c-0.4-1.3-0.6-1.8-1.8-3.6c-1-1.6-1.7-1.9-1.4-0.7c0.2,0.9,0.2,6.3,0,8.4c-0.2,1.5-0.1,1.8,0.8,4.5
		c1,3.3,1.1,3.8,0.1,5.9c-0.6,1.2-0.6,1.2-1.6,1.3c-1.5,0.2-3.6,1.6-3.6,2.5c0,0.4-1.4,1.6-3.7,3.1c-1.1,0.7-1.7,1.3-2.1,1.9
		c-0.5,0.9-0.5,1.1-0.4,4.3c0,1.8,0.1,3.4,0.2,3.5c0.1,0.1,0.2,1.4,0.3,2.9c0.1,1.5,0.5,4.4,0.9,6.3c0.5,2.7,0.7,4.2,0.7,6.2
		c0,2.7,0.1,3.5,1,6.5c0.6,1.9,0.7,3.7,0.3,4.2c-0.2,0.3-0.8,0.4-1.8,0.5c-1.3,0.1-1.6,0.1-2-0.3c-0.7-0.7-0.8-1.8-0.3-3.8
		c0.5-2.4,0.4-2.9-1.3-4.7c-1.7-1.8-3-2.7-3.7-2.7c-1.3,0-2.3,1.1-3,3.4c-0.2,0.7-0.4,0.8-0.7,0.8c-0.7-0.1-1.3-1.1-2.1-3.6
		c-0.4-1.2-1.1-2.9-1.6-3.8c-0.8-1.5-1-1.8-2.6-2.9c-1.3-0.9-1.8-1.5-2.2-2.2c-0.3-0.6-0.8-1.2-1.3-1.6c-1.7-1.2-2.4-1.9-3-3.1
		c-0.6-1.2-0.6-1.2-0.2-2.5c0.2-0.7,0.6-1.8,0.9-2.3c0.3-0.6,0.5-1.4,0.5-1.9c0-0.6-0.1-0.8-0.6-0.9c-0.7-0.2-1.5,0.3-2.4,1.6
		c-1,1.5-1.1,2.7-0.3,4.1c0.3,0.6,0.6,1.4,0.6,1.8c0,1,1.1,3.4,1.9,4.4c0.9,1,1.2,1.8,1.2,2.7c0,0.4,0.2,1.1,0.4,1.7
		c0.3,0.6,0.6,2,0.8,3.1c0.2,1.1,0.5,2.8,0.7,3.7c0.2,0.9,0.5,2.1,0.6,2.7c0.1,0.5,0.2,2,0.3,3.1c0,1.4,0.2,2.3,0.4,2.8
		c0.5,1,3.7,3.3,5.1,3.8c1.4,0.4,3.2,1.8,3.8,2.8c0.5,0.9,0.6,2.8,0.1,4.1c-0.2,0.5-0.6,1.4-1,2c-0.7,1.1-0.7,1.1-0.7,3.9
		c0,1.5-0.1,3.3-0.2,3.8c-0.4,1.5-0.3,2.9,0.2,3.7c1,1.6,6.4,5.7,6.9,5.2c0.1-0.1,0-0.6-0.1-1.1c-0.1-0.5-0.2-1.3-0.1-1.6
		c0.1-0.7-0.7-4.4-1.4-6.9c-0.2-0.6-0.7-1.9-1.2-2.8c-0.5-0.9-0.9-1.9-0.9-2.1c0-0.2,0.3-0.7,0.7-1.2c0.4-0.4,0.8-1.3,0.9-1.9
		c0.2-0.6,0.4-1.1,0.6-1.2c0.3-0.1,1.5,0.3,3.8,1.4c0.6,0.3,1.3,0.5,1.5,0.5c0.3,0,0.4,0.6,0.5,4.1c0.2,6.9,1.4,10.2,5.4,15.5
		c4.4,5.8,8,8.9,15.7,14.1c1.3,0.8,2.1,1.6,2.6,2.3c0.4,0.6,1.4,1.7,2.2,2.5c0.9,0.9,2,2.3,2.9,3.8c0.8,1.3,1.8,2.8,2.4,3.3
		c2.7,2.5,4.9,4.3,5.5,4.8l0.8,0.5l-0.1,1.6c-0.3,3.6-0.7,5-1.7,6.8c-2.5,4.3-3.5,7-3.5,9c0,1.1-0.3,1.3-0.8,0.5
		c-1-1.6-1.5-2.4-2.9-3.8c-0.8-0.9-1.5-1.9-1.5-2.2c-0.1-0.4-0.4-2.3-0.7-4.4c-0.9-6.2-1-6.3-2.1-7.9c-0.6-0.8-1.4-2-1.9-2.5
		c-0.6-0.7-1-1.6-1.4-2.8c-0.3-1-0.8-2-1.1-2.3c-0.3-0.3-1.7-1.1-3.2-1.9c-2-1.1-2.8-1.3-3.3-1.3c-1.1,0.2-1.6-0.2-2-1.3
		c-0.2-0.6-1.1-2.3-2.2-3.9c-2-3-2.8-3.9-3.9-4.5c-1.1-0.7-2.4-2-2.8-2.9c-0.2-0.5-0.7-1.7-1-2.8c-0.8-2.4-2-4-3-3.9
		c-0.5,0.1-0.6,0.1-0.6,1c0,0.7,0.2,1.3,0.8,2.1c0.4,0.7,0.8,1.3,0.8,1.3c0,0.5,2,4.2,2.8,5.1c1.1,1.3,1.3,2,1.6,5.1
		c0.2,1.8,0.3,2.5,0.7,3c1.9,2.7,3.9,5.7,5,7.6c0.7,1.2,1.9,2.9,2.6,3.7c2.8,3.1,3.9,5.3,4.1,9.1c0.1,0.9,0.3,2.7,0.5,4
		c0.8,5.4,1,6,1.7,7.3c1.5,2.5,1.5,2.5,1.7,6.7c0.1,2.5,0.3,4.2,0.5,4.6c0.3,0.6,2.3,3.6,3,4.4c0.1,0.1,0.8,0.3,1.6,0.4
		c1.7,0.3,3.2,0.9,4.2,1.7c0.4,0.3,1.6,1,2.7,1.5c1.1,0.5,2.1,1,2.4,1c0.3,0,0.9-0.5,1.7-1.4c0.7-0.8,1.8-2,2.5-2.6
		c0.7-0.7,1.6-1.7,2-2.3c0.4-0.6,1.3-1.6,1.8-2.3c0.6-0.7,1.6-2.3,2.3-3.5l1.3-2.3l-0.3-1.8c-0.5-3.9-0.2-6.4,1.9-12.4
		c0.9-2.7,1-3.3,0.4-5.1c-0.4-1.1-0.4-1.4-0.1-1.9c0.6-1.1,0.2-3.8-1.3-10.2c-0.5-2-0.7-3.5-0.7-4.7c0-1.7,0.1-2,1-3.8
		c0.5-1.1,1.1-2.8,1.3-3.7c0.5-2.3,0.9-2.9,3.1-4.4c4.6-3.1,7-4.9,7.4-5.3c0.6-0.8,0.6-1.5,0.8-9.8c0.1-4.2,0.2-8.2,0.3-8.7
		c0.5-2.4,0.7-4,0.6-5.4c-0.3-2.8-0.3-3,1.1-5.7c1-2,1.2-2.6,1.1-3.2c-0.3-1.2-1.8-3.5-2.3-3.5c-0.1,0-0.1,0.7-0.1,1.5
		c0.1,1.3,0.1,1.6-0.7,3.1c-0.4,0.9-0.9,1.7-1.1,1.7c-0.1,0-0.8-0.5-1.6-1.1c-1.1-1-1.3-1.2-1.3-2c0-1,1.2-3.1,3.1-5.6
		c0.7-0.9,1.3-2,1.5-2.7c0.4-1.6,1-7.6,0.8-8c-0.3-0.5,0.1-1.8,1.3-4C455,508.4,455,508.3,455,506.1z"/>
	<path class="st0" d="M397,590.1c0-0.1-0.5-0.8-1.2-1.6c-0.7-0.8-1.8-2.1-2.5-2.9c-0.7-0.9-1.6-1.9-2.1-2.2
		c-0.4-0.3-1.4-1.1-2.1-1.8c-0.7-0.6-1.8-1.4-2.3-1.6c-1.6-0.7-2.2-1.3-2.6-2.2c-0.2-0.5-0.8-1.5-1.5-2.2c-0.6-0.8-1.5-1.9-2-2.6
		c-0.5-0.7-1-1.3-1.1-1.3c-0.5,0-0.8,4.9-0.3,6.5c0.1,0.6,0.6,1.4,0.9,1.9c0.3,0.5,1.2,2.1,1.9,3.5c1.3,2.6,1.9,3.3,3.3,4
		c0.8,0.4,1.2,1.6,1.2,3.7c0,2.1,0.6,3.6,1.7,4.3c0.9,0.6,2,0.6,3.6,0.1c1.6-0.5,1.9-0.8,1.6-1.6c-0.1-0.3-0.3-1-0.4-1.6
		c-0.1-0.5-0.3-1.3-0.6-1.7l-0.4-0.8l2.5,0.1C396.1,590.3,397,590.3,397,590.1z"/>
	<path class="st0" d="M377.7,357.6c-0.2,0.1,0,0.3,0.4,0.7c0.7,0.5,1,0.6,1.1,0.1C379.3,358,378,357.3,377.7,357.6z"/>
	<path class="st0" d="M434.7,628.1c-0.1,0.4-0.3,1.1-0.6,1.5c-0.4,0.7-0.6,0.8-3.5,1.3c-0.3,0.1-0.7,0.5-1,1
		c-0.3,0.5-0.9,1.3-1.5,1.8c-0.8,0.7-1,1-1,1.5c0,0.9,0.4,1.2,1.5,1.2c0.6,0,1.3,0.2,1.6,0.3c0.7,0.4,1.3,0.4,1.9,0
		c0.6-0.4,1.5-2,2-3.3c0.2-0.5,0.7-1.5,1.2-2.3c0.9-1.5,1.4-2.9,1.4-4.3V626l-0.9,0.2C435,626.4,435,626.5,434.7,628.1z"/>
	<path class="st0" d="M445.3,577.5c0-0.3-0.1-0.5-0.4-0.5c-0.2,0-0.6-0.2-0.8-0.3c-0.6-0.4-1.6-0.4-2,0.1c-0.5,0.5-1.1,2.9-1.1,4.1
		c0,1.1,0.9,3.2,1.5,3.5c1.2,0.7,2.3,0,3.1-1.9c0.7-1.6,0.7-3,0.1-3.9C445.6,578.3,445.3,577.8,445.3,577.5z"/>
	<path class="st0" d="M404.2,521.3c-2.9,0.4-3.9,0.1-4.6-1.2c-1-1.8-1.4-1.2-1.4,2.1c0.1,3.5,0.4,3.9,4.7,6.1
		c1.9,0.9,2.6,1.4,2.9,1.9c0.2,0.4,0.4,0.7,0.5,0.7c0.1,0,0.2-0.5,0.3-1.1c0.1-0.6,0.3-1.4,0.6-1.9c0.6-1.1,0.7-5.5,0.2-6.1
		C406.9,521.1,406.4,521.1,404.2,521.3z"/>
	<path class="st0" d="M496.5,613c1-0.4,1-0.8,0-0.8c-1.1,0-1.5,0.2-1.5,0.7C495,613.4,495.5,613.5,496.5,613z"/>
	<path class="st0" d="M497,615.4c-2.1,0-4.2,1.8-3.3,2.8c0.6,0.7,2.5,0,3.7-1.4C498.5,615.6,498.4,615.4,497,615.4z"/>
	<path class="st0" d="M500.5,578.3c-0.8-0.5-2-0.1-2.7,0.9c-0.6,0.7-1.8,3.3-2.7,5.8c-0.3,0.8-0.8,2-1.1,2.6
		c-0.8,1.6-1.1,3.1-0.9,4.6c0.2,1.8-0.3,3.2-2.1,6.2c-2.5,4.2-2.9,4.8-3,5.3c-0.2,0.6,0.1,0.6,1.3,0c2-1,4.7-2.9,5.4-4
		c0.4-0.6,1.3-2,1.8-3.2c0.6-1.2,1.4-2.9,1.9-3.8c0.8-1.5,1.6-4,2.2-6.5c0.1-0.4,0.2-1.4,0.2-2.1c0-0.7,0.1-2,0.3-2.8
		C501.4,579.5,501.3,578.8,500.5,578.3z"/>
	<path class="st0" d="M496.7,620.1c-0.5,0.2-1.1,0.4-1.5,0.4c-1.5,0-4.5,2.1-5.1,3.5c-0.6,1.4-1.2,4.9-1.4,8
		c-0.2,3.2-0.2,3.9,0.3,4.5c0.6,0.8,1.1,0,2.1-2.8c1.4-4.2,2.3-6.1,5.1-11.1c0.5-0.9,1.1-1.9,1.3-2.1c0.2-0.2,0.3-0.5,0.3-0.7
		C497.6,619.7,497.5,619.7,496.7,620.1z"/>
	<path class="st0" d="M535.6,728.2c-0.4-0.5-0.5-1.2-0.7-2.8c-0.3-3.1-0.5-3.6-1.9-5.3l-1.3-1.6l0.1-10.4
		c0.2-11.6,0.4-17.4,0.9-21.8c0.5-4,0.1-8.7-1.2-15.1c-1.9-9.2-2.1-11-2.7-18.2c-0.2-2.5-0.3-2.7-1.1-4.5l-0.6-1.2l0.1-8.8
		c0-4.9,0.2-9.7,0.3-10.7c0.1-1,0.2-3.7,0.2-6c0-2.3,0.1-5.6,0.3-7.3c0.3-3.4,0.1-5.6-0.7-7.6c-0.4-1-0.4-1.7-0.4-5.4
		c0-2.7,0.1-5.1,0.3-6.4c1.1-7.2,1.1-6.7,0.8-10c-0.3-3.1-1-9.1-1.4-12c-0.1-0.9-0.3-2.1-0.3-2.7c-0.4-3.5-1.4-7.5-2.1-9
		c-0.2-0.5-0.4-1.1-0.4-1.3c0-0.6-0.9-2-2.4-3.8c-0.6-0.8-1.5-2-2-2.7c-2.6-4.1-3.4-5.1-6.1-7.7c-3-2.9-4.3-4.7-4.6-6
		c-0.1-0.5-0.1-2,0.1-3.9c0.4-4.2-0.1-7.2-1.9-13.6c-0.9-3.1-1.2-3.6-3.5-6c-0.9-0.9-1.6-1.9-1.6-2.1c0-0.2,0.2-1,0.4-1.8
		c0.6-2.1,0.3-3.3-1.6-7.5c-1.1-2.4-3.2-4.3-6.1-5.6c-1.6-0.8-1.6-1,0.2-1.2c1.5-0.2,1.8-0.5,2-1.5c0.1-0.6,0.3-1,0.7-1.1
		c1.5-0.7,2.3-2.4,2.3-4.7c0-1,0.1-1.2,1.2-2.4c1.6-1.7,1.8-2.4,1.6-6.1l-0.1-2.9l0.7-1.1c0.6-1,0.7-1.3,0.8-3.1
		c0.1-3-0.7-4.5-3.6-6.6c-2.8-2.1-3.3-2.5-3.9-3.5l-0.6-1l0.2-3.7c0.2-3.5,0.2-3.7,1-5.2c0.4-0.9,1.3-2,1.8-2.6
		c0.8-0.8,1.1-1.2,1.1-1.7c0-0.6-0.2-0.8-1-1.3c-0.6-0.3-1.6-1-2.4-1.5c-4.7-2.9-4.4-2.7-4.8-2.3c-0.2,0.2-0.7,0.4-1,0.4
		c-0.5,0-0.6-0.1-0.9-1.1c-0.2-0.6-0.4-1.4-0.5-1.9c-0.2-1-1.2-2.7-3.2-5.4c-1.9-2.5-2.3-3.2-2.3-4.3c0-0.5-0.3-2.1-0.7-3.7
		l-0.7-2.8l-0.2-9.5c-0.2-9.3-0.3-10.9-1.1-16c-1-5.9-0.9-7.4,0.4-15.8c1.1-6.6,1.2-7.5,1.2-11.4c0-3.7-0.1-4.4-0.9-8
		c-0.6-2.6-1.1-3.8-2.7-6.4c-1.5-2.5-3.3-4.5-6.7-7.5c-1.2-1-2.2-1.9-2.2-2c-0.1-0.1-0.7-0.6-1.4-1.2c-0.7-0.6-1.4-1.4-1.6-1.7
		c-0.2-0.3-0.8-2.4-1.3-4.6c-1.2-4.6-1.4-5.2-2.7-8.3c-0.6-1.3-1-2.4-0.9-2.4c0,0,0.4-0.4,0.9-0.7c0.8-0.7,0.9-0.7,2.7-0.6
		c1.6,0.1,2,0.1,2.8-0.3c0.8-0.4,1.4-1,2.7-2.7c0.3-0.4,1.2-1,2-1.5c2-1,3.5-2.2,5.9-4.7c1.4-1.4,2.7-2.5,4.3-3.4
		c2.4-1.5,3.2-1.7,4.7-1.1c4.8,1.8,4.5,1.7,5.2,1.4c0.8-0.4,1.1-1.3,1.5-3.7l0.3-1.9l0.7-0.1c0.4,0,1.4,0.1,2.2,0.3
		c2.3,0.5,3.3,0.5,4.2-0.3c0.4-0.4,1.1-0.8,1.6-1c0.6-0.2,1.1-0.6,1.3-1.1c0.4-0.7,0.4-0.8,0-1.8c-0.6-1.8-0.7-2.7-0.4-4
		c0.4-1.8,1.2-2.6,2.4-2.5c0.5,0.1,1.3,0.4,1.9,0.6c0.9,0.4,1.1,0.4,1.6,0.2c0.8-0.4,1.1-1.4,0.7-2.4c-0.2-0.5-0.6-1.1-0.9-1.4
		c-0.3-0.3-0.6-0.8-0.7-1.1c-0.1-0.3-0.5-1-1-1.5c-0.8-0.9-0.9-1.2-0.9-2c0-1.5-0.5-2.4-1.8-3.5c-0.7-0.5-1.7-1.5-2.3-2.1
		c-1-1-1.3-1.5-3.2-5.6c-2.3-5-2.9-6.2-4.2-7.7c-0.7-0.9-1.6-2.3-2-3c-1.5-3.1-5.1-5.7-10.9-8c-0.7-0.3-1.7-0.8-2.3-1.1
		c-2.3-1.3-3.7-1.6-8.5-1.8c-4.2-0.2-4.6-0.2-6.4,0.2c-1.4,0.3-2.7,0.4-4.8,0.4c-3.3,0-4.2,0.2-7.6,1.6c-2.5,1-2.7,1-4.6,0.6
		c-2.5-0.5-4.8,0.7-6.4,3.3c-0.5,0.8-1.2,1.6-1.6,1.8c-0.4,0.2-1.7,0.4-2.9,0.6c-1.2,0.1-2.5,0.3-2.8,0.4c-1.4,0.6-1.8,0.8-2.7,1.3
		c-0.5,0.3-1.5,0.9-2.2,1.3c-1.6,0.8-2,1.2-2.5,2.5c-0.5,1.3-0.4,2.7,0.1,5c0.4,1.6,0.4,2.1,0.2,3.4c-0.3,1.8,0.1,3.7,1,5.1
		c0.3,0.5,0.6,1.1,0.7,1.5c0.3,1.1,0.9,2.2,1.9,3.4c0.8,0.9,0.9,1.1,0.9,2.1c-0.1,1-0.1,1-0.9,1.2c-0.4,0.1-1.2,0.3-1.6,0.4
		c-0.6,0.2-1.2,0.2-2.2-0.1c-0.8-0.2-2.5-0.4-3.9-0.4c-1.4-0.1-2.6-0.2-2.7-0.3c-0.1-0.1-0.3-1.5-0.3-3.1
		c-0.4-7.5-2.9-13.1-8.4-18.6c-2.9-2.9-4.7-4.3-8.7-6.3c-1.8-0.9-3.9-2.1-4.4-2.5c-1.4-1-4.3-4.7-5-6.2c-0.4-0.9-1.5-4.5-2.4-7.6
		c-0.7-2.5-2.1-5.5-4.3-8.8c-1.4-2.1-2.2-3.6-2.8-5.3c-0.8-2.1,0.3-7.8,1.9-10.6c2-3.4,3.9-7.9,4.8-11.5c0.5-1.9,1.5-8.9,1.8-13
		c0.5-6.3,1.2-10.7,2.4-14c0.7-1.9,0.8-2.1,1.7-2.5c1.5-0.6,1.8-3,0.7-5c-0.7-1.2-1.6-1.7-3.3-1.7c-0.8,0-1.2-0.1-1.1-0.3
		c0.1-0.3,1.1-0.8,1.6-0.8c0.2,0,0.6-0.4,0.9-0.9c1.2-2.1,4.3-5.9,4.4-5.4c0,0.1-0.7,1.4-1.7,2.8c-2.4,3.5-2.4,4.2,0,1.8
		c1-1,2.5-2.6,3.4-3.6c1.5-1.7,2.2-2.2,2.5-1.6c0.1,0.1-0.7,1.3-1.7,2.6c-3.3,4.3-4,5.4-3.9,5.9c0.6,2.3,1.1,4.2,1.3,4.2
		c0.1,0,1.4-1.8,3-3.9c2.5-3.4,3-3.9,3.4-3.8c2.6,0.8,5.9-0.1,7.5-2.1c0.5-0.6,1.1-1,2.3-1.5c2.1-0.8,2.8-1.3,3.3-2.3
		c0.3-0.6,0.6-0.9,1.1-1c0.6-0.2,2-1.1,2.5-1.7c0.5-0.6,1.4-2.7,1.4-3.2c0-0.6,0.4-1,1.9-1.8c1.5-0.8,2.5-1.8,3.2-3.2
		c0.8-1.8,0.5-3.3-1.4-5.8c-0.4-0.6-0.7-1.1-0.6-1.3c1-1.6,5.9-8.6,6.1-8.6c0.1,0,0.8,0.3,1.6,0.7c2.1,0.9,4.7,1.2,6.6,0.7
		c1.3-0.4,1.6-0.6,3.3-2.3c7.6-7.9,20.7-22.5,20.7-23.1c0-0.1-0.8-0.2-1.9-0.3c-2.5-0.2-3.8-0.6-6-1.7c-2.3-1.2-4.9-3.6-6.3-5.8
		c-1.8-2.9-1.5-2.7-2.9-1.8c-0.7,0.4-2.7,1.8-4.4,3c-1.8,1.2-3.4,2.3-3.7,2.4l-0.5,0.1l0.4-0.5c0.3-0.3,2.3-2,4.7-3.9
		c3.1-2.5,4.2-3.5,4.2-3.8c0-0.8-0.3-1.5-0.5-1.5c-0.1,0-1.4,0.8-2.7,1.7c-1.3,0.9-4.6,3.1-7.1,4.9c-2.6,1.8-6.5,4.5-8.8,6
		c-3.9,2.7-4.7,3.2-4.5,2.6c0.1-0.3,3.5-3.1,6.1-5.1c1-0.7,5.2-3.9,9.4-7l7.6-5.7l0.1-1.4c0.1-0.8,0.1-1.5,0-1.5
		c-0.1-0.2-10.6,7.1-21.2,14.7c-3.9,2.8-6,4.5-6.4,5.1c-1.1,1.6-1.6,3.7-1.6,6.7c0,1.8,0.1,3.2,0.4,4c0.5,1.8,1.7,4.3,2.8,5.7
		l0.9,1.2l-1,1.2c-0.6,0.6-1.7,2.1-2.5,3.2c-0.8,1.1-1.9,2.4-2.3,3l-0.7,0.9l-1.3-0.6c-1.8-0.8-3.6-1.4-4.2-1.4
		c-1.8,0-2.8,0.7-5.5,3.9c-1.9,2.2-3.2,3.3-5.8,4.8c-1.1,0.7-2.4,1.5-2.9,2c-2.1,1.8-9.5,10-10.3,11.5c-0.7,1.3-10.3,15.7-13,19.6
		c-2.1,2.9-4.9,6.7-10.4,13.8c-4.2,5.5-6.4,8.9-7.1,11.2c-0.2,0.6-0.7,2.6-1.2,4.5c-0.9,3.7-1.5,5.1-3.6,8.5
		c-1.4,2.3-2.1,3.9-2.4,5.7c-0.3,1.5-0.1,2.7,0.9,8.1c0.9,4.4,1.4,8.2,2.1,14.2c0.3,2.7,0.6,5.4,0.7,5.9c0.1,0.6,0.3,2.4,0.5,4
		c0.5,4.3,1.6,8.7,3.3,12.9c1.4,3.6,5.5,11.1,8.4,15.6c1.7,2.6,2.1,3.1,4,5.1c2.6,2.7,4.7,5.3,5.4,6.5c0.6,1.2,0.7,1.3,0.6,3.8
		c0,3.4-0.2,3.7-3.9,7.5c-1.6,1.6-3.3,3.5-3.8,4.2c-0.8,1.2-2,4.4-2,5.2c0,0.7-1.2,2.6-2.7,4.1c-2,2.1-4,4.7-5.3,6.7
		c-3.1,4.7-3.9,8-4.6,17.5c-0.1,1.5-0.3,3.1-0.4,3.6c-0.2,0.8-0.8,3.9-1.1,6.2c-0.1,0.8-0.7,2.8-1.2,4.4c-1.4,4.2-1.6,5-1.9,8.5
		c-0.2,2.4-0.5,4-1.2,7c-1.3,5.1-2.1,9.4-2.1,11.2c0,2.6,1.3,9.2,2.4,12.3c1.4,4,1.6,5.2,1.6,10.3c0,2.6,0,4.8,0.1,4.9
		c0.3,0.4,1,7.1,1.3,10.9c0.2,2.9,0.2,4.9,0,7.3c-0.5,6-0.5,12.2-0.2,15.5c0.4,3.7,0.4,6.6,0,9.2c-0.3,2.1-0.2,11.6,0.2,14.5
		c0.1,0.9,0.3,2.6,0.5,3.9c0.4,4,0.7,5.8,1.2,8.3c0.4,2.1,0.4,2.9,0.3,9.6c-0.1,7.2,0,9,0.7,12.8c1.3,7,1.6,12.5,1,16
		c-0.3,1.5-0.4,3.6-0.4,7.9c0,3.7-0.1,6.4-0.3,7.1c-0.1,0.6-0.5,2.3-0.8,3.8c-0.3,1.5-0.9,4-1.3,5.7c-1.2,4.7-1.6,7.1-1.2,9.2
		l0.3,1.8l-0.9,1.6c-1.1,1.8-1.3,3-1.3,7.1c0,2.9-0.4,5.9-0.9,7.5c-0.3,0.7-0.5,1.9-0.7,2.6c-0.3,1.6-0.3,11.7,0,12.8
		c0.1,0.4,0.6,2.2,1,3.9c0.7,2.7,0.8,3.5,0.8,5.4c0,2.1-0.3,3.6-1.1,6.1c-0.2,0.6-0.4,2-0.5,3.3c-0.6,6.4-1.3,11.2-2.4,16.3
		c-1.2,5.8-1.7,6.7-3.8,8.6c-0.8,0.7-2.5,2.3-3.8,3.4c-1.2,1.2-3.1,2.9-4.1,3.9c-2.8,2.6-5.8,5.9-6.5,7.2c-0.7,1.3-1.4,3.3-2.9,8.6
		c-1.3,4.4-1.2,4.3-3.5,7.7c-0.9,1.4-1.9,3.2-2.2,3.9c-1.1,2.7-1.4,6.7-1.6,19c-0.1,11.3-0.5,21.2-0.8,23.5
		c-0.1,0.9-0.6,2.8-1.1,4.3c-1,2.9-1.1,4.2-0.7,6.7c0.2,1.2,0.3,1.4,1,1.7c1,0.5,5.4,1.3,7.8,1.5c1.6,0.1,2.3,0.3,4.4,1.2
		c3.6,1.6,11.4,4.7,13.7,5.5c3.2,1.1,3.3,1.1,15.3,1.8c2.3,0.1,5.2,0.4,7.2,0.8c1.8,0.3,3.8,0.7,4.4,0.8c1.7,0.3,8.4,2,11.6,3
		c1.5,0.4,4.2,1.3,5.9,1.8c1.8,0.5,5.1,1.5,7.4,2.2c6.5,2,9.9,2.8,14.7,3.5c2.5,0.4,5.8,0.9,7.4,1.3c1.6,0.3,4.1,0.8,5.6,1.1v0
		c1.5,0.3,3.3,0.5,4.1,0.5c1.4,0,2.2-0.1,6.1-0.7c2.1-0.3,4.7-1.5,15-6.4c3.8-1.8,6-2.7,11-4.4c3.6-1.2,5.6-2.1,11.9-5
		c2.8-1.3,5.5-2.6,6-2.7c0.9-0.4,7.2-0.4,11.3,0c3.6,0.3,8.3-0.1,13.7-1.2c0.9-0.2,3.9-0.4,6.9-0.6c6.1-0.3,7.7-0.4,16.5-1.6
		c4.5-0.6,9.1-0.5,10.7,0.2c1.1,0.5,2,0.3,2.4-0.5C536.5,729.9,536.3,729.3,535.6,728.2z M437.9,141.3c4.7-3.2,15-10.4,18.6-13
		c2.1-1.6,4-2.8,4-2.7c0.1,0.1-0.5,0.8-7.3,7.7c-2.7,2.8-5.9,6.1-7,7.3c-1.2,1.2-2.5,2.6-3,3.1c-0.7,0.8-0.9,0.8-2,0.8
		c-0.7,0-1.1-0.1-1.1-0.3c0-0.1,1.2-1.5,2.7-3c2.3-2.4,3-3.2,2.6-3.2c-0.1,0-1.8,1.4-3.9,3.1l-3.8,3.1l-1-0.5
		c-0.6-0.3-1-0.6-0.9-0.7C435.8,142.8,436.8,142,437.9,141.3z M495.7,467.2c0.2,0.2,1,0.8,1.9,1.4c2.1,1.4,3.9,3.1,4.2,4.1
		c0.1,0.4,0.2,1.3,0.2,2c0,1-0.1,1.5-0.8,2.5c-0.8,1.2-0.8,1.4-0.7,2.9c0.3,5.9-0.1,6.8-2.3,6.2c-1-0.3-4.6-0.1-5.8,0.2
		c-0.6,0.1-0.6,0.2-0.3,0.7c0.1,0.3,0.6,0.7,1.2,0.8c1,0.3,1.7,0.7,3.3,1.7c1,0.6,1.1,0.8,1.1,1.5c0,1.3-0.4,1.6-2.7,2
		c-1.1,0.2-1.5,0.7-0.6,0.7c0.3,0,0.6,0.1,0.6,0.2c0,0.4-0.9,0.7-2.3,0.9c-0.7,0.1-2.1,0.3-2.9,0.4c-2.5,0.4-2.9,0.4-3.5,0.2
		c-0.4-0.1-0.8-0.1-0.9-0.1c-0.7,0.3-5.6-2.6-6.8-4c-0.4-0.5,0.6,0,4.1,1.7c2.4,1.2,2.8,1.3,4.1,1.4c1.7,0,3.2-0.3,4.7-1l1-0.5
		l-0.9-0.3c-0.5-0.2-1.9-0.4-3.2-0.5c-2-0.2-2.7-0.4-4.4-1.1c-1.1-0.5-2.7-1.1-3.4-1.5c-1.7-0.6-4.5-3.1-4.2-3.8
		c0.1-0.3,0.4-0.2,1.5,0.6c3.2,2.3,3.8,2.6,7.1,2.6c1.2,0,3,0.1,4,0.2c1,0.1,2.5,0.1,3.2,0.1l1.3-0.1l-0.8-0.5
		c-0.4-0.3-1.4-0.6-2-0.8c-0.7-0.1-1.5-0.4-1.8-0.7c-0.3-0.2-0.8-0.4-1.1-0.4s-0.5-0.1-0.6-0.2c-0.1-0.1-0.8-0.3-1.6-0.5
		c-1.2-0.2-1.9-0.5-3.1-1.3c-0.9-0.6-2.1-1.3-2.7-1.6c-1.3-0.7-3.4-2.5-3.8-3.3c-0.4-0.8-0.6-2.1-0.4-2.5c0.1-0.2,1.1,0.2,3.1,1.2
		c5.6,2.8,6.9,3.2,10,2.8c1.1-0.1,2.8-0.5,3.8-0.8c1-0.3,2.1-0.6,2.7-0.7c1.9-0.3,0.9-0.6-2.4-0.7c-3.1-0.1-3.5-0.2-4.7-0.8
		c-0.8-0.4-1.4-0.8-1.4-1.1c-0.1-0.7-1.1-2.1-1.5-2.1c-0.1,0-0.4,0.3-0.5,0.7c-0.2,0.6-0.3,0.7-0.9,0.6c-0.3-0.1-1.6-0.6-2.8-1.3
		c-1.5-0.8-2.3-1.4-2.6-1.8c-0.2-0.4-0.4-0.8-0.3-0.8c0.1-0.1,0.6-0.2,1.1-0.3c0.7-0.1,1.6-0.5,2.9-1.3c1.8-1.1,2-1.1,2.3-0.8
		c0.9,0.8,2.4,1,6.1,1c3.5,0,5.8-0.4,6-0.9c0.1-0.1-0.4-0.6-0.9-1c-0.6-0.4-1-0.8-1-0.9c0-0.4,0.7-1.8,0.9-1.8
		C495.4,466.9,495.6,467.1,495.7,467.2z M488,499.1c0,0.1-0.2,1.8-0.3,3.6c-0.2,2.2-0.4,3.4-0.5,3.4c-0.2,0-1-3.5-1.4-6.3
		c-0.1-0.8-0.1-0.8,0.7-1C487.3,498.6,488,498.7,488,499.1z M477.3,470.3l0.1-1.1c0.1-1.1,1-3.1,2.6-5.7c1.3-2.1,2.9-3.7,3.9-3.7
		c0.4,0,0.4,0.3,0.4,2.4c0,3.3-0.8,5.2-1.2,3.1c-0.2-0.9-0.6-1.5-0.9-1.5c-0.1,0-0.3,0.7-0.3,1.6c-0.1,2.2-0.4,3.2-1.5,4
		c-0.6,0.5-1.1,0.7-2,0.8L477.3,470.3z M486,467.5c0.3-0.8,0.4-1.7,0.5-5.5c0.1-3.7,0.2-4.5,0.4-4.5c0.5,0,0.8,0.8,1.1,3.6
		c0.2,1.5,0.4,2.8,0.4,2.8c0.3,0.3,0.4-0.4,0.5-2.5c0.1-2.4,0.3-3.1,0.9-2.6c0.2,0.2,0.3,1.1,0.3,3.8c0,3.8-0.4,6.1-1.1,6.6
		c-0.4,0.3-0.5,0.3-1.9,0C485.6,468.9,485.5,468.7,486,467.5z M491,447c0.5,0,1.6,0.5,3.5,1.6c1.5,0.9,2.8,1.6,2.9,1.6
		s0.4,0.2,0.7,0.4l0.5,0.4l-1.1,0.8c-0.6,0.4-1.2,0.8-1.4,0.8c-0.1,0-1.2,0.4-2.4,0.9c-2.8,1.1-3,1.2-3.5,0.8
		c-0.3-0.2-0.9-0.5-1.5-0.7c-0.6-0.2-1.7-0.9-2.5-1.6c-0.8-0.7-1.7-1.3-2-1.5c-0.4-0.3-0.4-0.3,1-1C489.4,447.3,490.4,447,491,447z
		 M473.6,319.1c-0.5,0.7-1.7,2.9-2.7,4.9c-1.2,2.4-2.1,3.9-2.6,4.3c-0.6,0.5-1,0.6-1.8,0.6c-1.2,0-1.3-0.1-3.4-2.9
		c-1.3-1.8-2-3.1-2-3.7c0-0.8,1-1.2,3-1.2c0.9,0,1.9-0.1,2.1-0.2c0.2-0.1,0.6-0.3,0.8-0.3c0.4-0.1,0.5-0.6,0.1-0.6
		c-0.1,0-0.7-0.2-1.2-0.4c-0.5-0.2-1.1-0.5-1.3-0.6c-1-0.3,0-0.6,2.1-0.6c2.6,0,3.9-0.4,4.9-1.5c0.9-0.9,1.5-1.1,2.3-0.8
		C474.8,316.5,474.7,317.5,473.6,319.1z M474.4,312.8c-1.4,0.7-1.8,0.6-3.3-0.5c-1.5-1.1-2.7-2.8-3.4-4.9c-0.4-1.1-1.3-1.8-3.5-2.3
		c-2.8-0.7-3.3-0.8-3.3-0.4c0,0.2,0.4,0.6,1.2,0.9c1.5,0.7,3.4,2.2,3.8,3.1c0.1,0.4,0.8,1.1,1.5,1.7c1,0.9,1.2,1.2,1.2,1.8
		c0,0.9-0.4,1.8-0.9,1.9c-0.6,0.1-2.2-1.2-3.4-2.9c-1.1-1.4-2.8-3.3-2.8-3c0,0.1,0.3,0.8,0.6,1.7c0.8,1.9,1.8,3.1,2.9,3.7
		c0.5,0.3,0.9,0.6,0.9,0.7c0,0.7-2.1-0.6-3.9-2.2c-1.1-1.1-1.3-1.4-1.5-2.5c-0.1-0.7-0.2-1.7-0.1-2.2c0.1-0.8,0-1.3-0.3-1.9
		c-0.4-0.9-0.7-3.4-0.4-3.8c0.1-0.1,0.7-0.4,1.3-0.6c1.2-0.3,1.4-0.5,0.7-0.9c-0.6-0.3-0.6-0.7,0-1.7c0.6-1.2,1.5-2,2.5-2.6l0.9-0.4
		l1.9,0.6c1,0.3,1.9,0.7,2,0.8c0.2,0.3-1,2.7-2.1,4c-0.9,1.1-1.1,1.6-1.1,2.2c0,1,0.8,2,2.5,2.9c0.8,0.5,1.3,1.1,2.3,2.5
		c1.5,2.4,3.4,3.9,4.4,3.7C475.4,311.7,475.1,312.4,474.4,312.8z M482.8,307.1c-2.7,2.8-3.5,3.9-3.9,4.8c-0.7,1.7-0.9,2-1.3,2.2
		c-1.3,0.8-2.9,0.3-1.7-0.5c0.3-0.2,0.8-0.8,1.2-1.3c1.3-2,5.2-6.2,5.9-6.2C483.5,306.1,483.5,306.3,482.8,307.1z M432,289.4
		c-0.2-0.4-0.7-1.1-1.1-1.6c-0.8-1.1-0.9-1.7-0.3-1.5c0.4,0.1,0.4,0,0.4-0.6c0-1,0.3-1.2,1.1-0.6c0.6,0.5,0.6,0.5,0.9,0.1
		c0.4-0.5,0.4-1.6-0.1-2.1c-0.3-0.3-0.4-1.1-0.6-2.8c-0.1-1.3-0.2-2.4-0.3-2.5c-0.3-0.3-0.8,0.6-1.3,2l-0.5,1.6l-0.3-0.9
		c-0.3-0.9-0.4-3.9-0.2-4.5c0.2-0.6,4.1-3,5.8-3.6c0.9-0.3,2.6-0.7,3.8-0.9c2.7-0.4,3.2-0.7,4.4-2.2c1.8-2.4,3-3.3,4.2-3.3
		c0.3,0,1.4,0.1,2.4,0.2c1.4,0.1,2.1,0.1,3.1-0.2c1.1-0.3,1.8-0.4,3.7-0.2c1.3,0.1,2.7,0.3,3.2,0.4c0.5,0.1,0.9,0.2,1,0.1
		c0.1-0.1-0.2-0.4-0.5-0.8c-0.7-0.8-0.7-0.9-0.2-0.9c1.3,0,6.1,1.9,6.4,2.5c0.2,0.3,1,0.2,1-0.1c0-0.3-1-2.1-1.5-2.8
		c-0.3-0.5-0.3-0.5,0.5-0.8c0.6-0.2,2.1-0.3,5.1-0.2c3.6,0.1,4.5,0.2,5.7,0.6c0.8,0.3,1.6,0.6,1.7,0.7c0.1,0.1,2.4,1.3,5,2.6
		c4.3,2.1,5,2.6,6.2,3.8c1.3,1.3,2.1,2.5,2.1,3.1c0,0.3-2.7,0.2-3-0.1c-0.1-0.1,0.1-0.3,0.5-0.5c0.9-0.4,0.9-0.6-0.1-0.6
		c-1.3,0-3.8,1.4-4.4,2.5c-0.5,0.9-0.1,1,3.4,1c3.7,0,5.2,0.3,6,1.1c0.5,0.6,1.9,3.1,2.2,4.2c0.1,0.4,0.8,1.7,1.4,2.7
		c0.6,1,1.4,2.5,1.8,3.2c1,2,2.3,3.6,3.6,4.6c1.2,0.9,1.9,2,1.9,3c0,0.7-0.5,0.8-1.5,0.1c-0.6-0.4-1-0.4-2.6-0.4l-1.9,0.1l1.3,0.5
		c0.8,0.3,1.8,0.9,2.6,1.7c1,0.9,1.6,1.3,2.9,1.7c1.7,0.6,2.5,1.1,2.5,1.8c0,0.4-0.1,0.4-1.6,0.3c-2.8-0.2-4.4,0.5-5.2,2.3
		c-0.1,0.1-0.3,0-0.5-0.2c-0.6-0.7-1.8-1.5-2.1-1.5c-0.5,0-1-0.9-0.9-1.6c0.1-0.3-0.1-0.8-0.3-1.2c-0.4-0.7-2.8-1.9-3.6-1.9
		c-0.3,0-1.2,0.4-2,0.9c-0.8,0.5-1.6,0.9-1.7,1c-0.4,0.2,0.3,0.6,1.2,0.6c0.4,0,1.5,0.2,2.3,0.4c1.3,0.3,1.5,0.4,1.4,0.7
		c-0.4,0.8-0.3,1.1,0.1,1.6c0.4,0.3,0.8,0.5,1.5,0.5c1.3,0,2.5,1,2.7,2.2c0.2,1.1,0.4,1.4,1.6,3c0.5,0.7,1,1.5,1,1.7
		c0,0.5-0.8,1.2-1.9,2c-0.7,0.5-1,0.4-3.5-0.2c-0.5-0.1-1.4-0.3-2.1-0.3c-1.7,0-1.9-0.1-1.6-0.9c0.1-0.4,0.2-1,0.1-1.4
		c-0.1-0.4,0-1.1,0.1-1.6c0.1-0.6,0.1-1.1,0-1.6c-0.3-0.8-1.7-2.1-2.3-2.1c-0.3,0-0.3,0.1,0.1,1.2c0.5,1.4,0.4,1.8-0.4,1.7
		c-1.1-0.1-1.2,0.2-0.4,1.2c0.5,0.6,0.6,1,0.5,1.3c-0.1,0.3,0.1,0.7,0.6,1.3c0.4,0.4,0.7,0.8,0.7,0.8c0,0,0.1,1,0.1,2.1
		c0.1,2.3-0.1,3.1-0.6,2.2c-0.2-0.3-0.6-0.7-1-0.9c-0.4-0.2-1-0.7-1.2-1c-0.5-0.7-0.9-0.7-0.9,0.1c0,0.3-0.2,0.7-0.4,0.9
		c-0.3,0.4-0.3,0.4,0,0.8c0.2,0.2,0.4,0.5,0.4,0.6c0,0.2-0.1,0.2-1.1-0.1c-1-0.3-1.3-1.3-0.7-2.4c0.2-0.4,0.4-0.9,0.4-1.2
		c0-0.6,0.3-0.6,1.1-0.1c0.4,0.3,0.9,0.6,1.1,0.7c0.2,0.1,0.5,0.4,0.7,0.5c0.6,0.5,0.4,0-0.4-1.8c-1.4-2.8-2.1-3.7-5.5-5.6
		c-1.8-1.1-2.8-1.8-2.6-1.9c0.4-0.1,3.6,1,4.1,1.4c0.2,0.1,0.3,0.1,0.3-0.1c0-0.3-0.5-0.6-2.9-1.8c-1.9-1-4.4-2-5.2-2.1
		c-0.8-0.2-1.5-0.7-1.1-0.9c0.2-0.1,4.2,0.7,5.7,1.1c0.5,0.1,1.3,0.3,1.9,0.4c1.1,0.2,3,0.7,3.7,1c0.3,0.1,0.4,0.1,0.3-0.2
		c-0.2-0.6-4-2-7.7-2.8c-2.5-0.6-5.2-1.4-5.1-1.5c0.1-0.1,6.8,0.3,8.2,0.6c1.3,0.2,1.7,0.1,1.1-0.2c-0.7-0.4-4.6-1.3-5.9-1.3
		c-1.8,0-4.4-0.6-5-1.1c-0.8-0.7-0.7-1,0.4-1.3c0.5-0.1,1.1-0.3,1.2-0.4c0.5-0.1,0.2-0.6-1-1.2c-0.9-0.4-1.4-0.6-2.8-0.6h-1.7
		l-0.5-1.5c-0.9-2.9-1.1-3.8-0.8-4.2c0.7-0.9,1.8-3.1,1.7-3.2c-0.2-0.2-3.8,3.6-4.1,4.3c-0.4,0.9-1.6,1.2-2.8,0.9
		c-0.8-0.2-0.8-0.2-1.5-2.3c-0.7-2.4-1.6-4.1-2.4-4.8c-0.7-0.5-0.8-0.5-0.5,0.5c0.3,0.9,0.3,2.8,0,3.4c-0.1,0.4-0.3,0.3-1.1-0.3
		c-1.1-0.8-1.6-0.8-0.9,0.1c0.3,0.3,0.8,1.2,1.1,1.9c0.6,1.2,2.2,2.9,3.1,3.2c0.2,0.1,0.2,0.4,0.1,1.3c-0.1,1-0.2,1.2-0.7,1.2
		c-0.7,0-0.9,0.4-0.3,0.7c0.9,0.6,0.6,1.1-1.4,1.8c-0.5,0.2-1,0.6-1.3,0.8c-0.4,0.5-0.5,0.5-1.8,0.2c-0.8-0.1-1.9-0.3-2.5-0.2
		c-1.1,0-3.4-0.4-3.8-0.8c-0.3-0.3-1.2-0.2-1.2,0c0,0.3,3.2,2.8,3.8,3c0.9,0.3,0.2,0.6-0.9,0.4c-1.3-0.2-3.1-1-4.6-2
		c-1.3-0.9-1.8-0.9-1.1-0.1c0.8,1,0.6,1.1-1,0.4c-0.9-0.4-1.2-0.8-2.5-2.9c-0.8-1.3-1.7-2.7-1.9-3c-0.5-0.8-0.8-1.8-0.5-1.8
		c0.1,0,0.5,0.4,0.8,0.8c0.8,1,3.3,3.6,3.5,3.6c0.3,0,0.2-1-0.3-1.8c-0.3-0.4-0.8-1.5-1.1-2.3c-0.3-0.8-0.9-1.9-1.3-2.4
		c-0.9-1.1-1.5-2.3-2.1-4.3c-0.5-1.5-0.5-1.7-0.2-3.1c0.2-0.8,0.4-1.8,0.6-2.3c0.2-0.5,0.2-0.9,0.2-1.1c-0.2-0.3-0.9,0.7-1.8,2.6
		l-0.9,1.7l-0.6-0.9c-0.3-0.5-0.7-0.9-0.9-0.8c-0.4,0.1-0.8,1.5-0.8,2.8c0,1.1-0.1,1.3-0.8,2.1c-0.8,0.8-1.5,2.7-1.5,3.7
		c0,0.3,0.1,0.9,0.3,1.3c0.4,1.1,0.4,1.2-0.2,1.2C433.6,290.9,432.5,290.2,432,289.4z M435.6,295.4c0.2-0.3,2.1,0.4,2.8,1.1
		c0.4,0.4,1,0.9,1.3,1.1c0.7,0.6,0.4,0.6-0.9,0.1C437.7,297.3,435.4,295.6,435.6,295.4z M434.3,293c-1.5-0.8-1.9-1.2-1-1.2
		c1.1,0,3.1,1.2,3.1,1.9C436.4,293.9,435.7,293.7,434.3,293z M436.7,288.5c0-1.1,0.4-2.6,0.8-2.6c0.1,0,0.2,1.3,0.1,2.9
		c0,1.6-0.1,2.9-0.2,2.9C437.2,291.8,436.7,289.7,436.7,288.5z M385.4,227.4c-0.6,1.2-1,2.2-1,2.4c0,0.4-0.4,0.5-0.5,0.1
		c-0.1-0.2-0.2-0.9-0.3-1.5c-0.1-1.1-0.1-1.3,0.9-3c0.6-1,1.1-1.9,1.3-1.9c0.1-0.1,0.2,0.2,0.3,0.5c0.1,0.4,0.2,0.8,0.2,1
		C386.4,225.1,386,226.2,385.4,227.4z M398.6,161.7c-1,0.8-1.1,0.5-0.1-0.5c0.5-0.6,1-1,1.1-0.9
		C399.8,160.4,399.2,161.2,398.6,161.7z M407.9,169.8c-0.8-1.2-2.4-2.2-3.6-2.2c-0.4,0-0.9-0.2-1.2-0.4c-0.5-0.3-0.4-0.3,1.2-0.3
		c2.9,0.1,4.7,1.3,4.9,3.1C409.2,171.1,408.7,171,407.9,169.8z M434.3,135.3c0.1,0.3-2.2,4.2-5.7,9.5c-1.5,2.3-3,4.7-3.3,5.2
		c-0.3,0.5-0.5,1-0.6,0.9c-0.3,0-1.6-1-1.6-1.2c0-0.1,0.2-0.4,0.4-0.6c0.6-0.5,2.5-2.9,5.3-6.9C432.6,137.1,434.2,135,434.3,135.3z
		 M423.5,143.3c1.4-1.6,3.3-3.9,4.4-5.3c1-1.4,1.9-2.4,2-2.3c0.1,0.1-1.2,2.3-2.9,4.9c-1.6,2.6-3.4,5.4-4,6.4
		c-0.6,1-1.2,1.8-1.4,1.8c-0.3,0-1.3-0.5-1.7-0.9C419.7,147.8,420.5,146.7,423.5,143.3z M411.4,146.8c1.5-0.7,1.6-0.7,8.9,4.2
		c2.9,1.9,5.7,3.8,6.3,4.1c2.1,1.2,2.8,3.5,1.7,5.5c-0.5,0.9-1.7,2-1.9,1.7c-0.1-0.1-0.1-0.8-0.2-1.5c-0.1-1.3-0.1-1.3,0.4-1.4
		c0.3,0,0.6-0.1,0.6-0.2c0.3-0.3-0.6-1.3-1.6-1.9c-0.5-0.3-2.1-1.4-3.5-2.5c-1.4-1-2.7-1.9-2.7-1.9c-0.1,0-0.6-0.3-1.1-0.8
		c-0.5-0.4-1.5-0.9-2.1-1c-2.9-0.8-4-1.1-4.2-1.5c-0.2-0.3-0.6-0.4-1.1-0.4c-0.5,0-0.9-0.1-1-0.2
		C409.7,148.7,410.7,147.2,411.4,146.8z M403.7,161.7c-0.5-0.3-0.9-0.5-0.9-0.5c0-0.1,0.4-0.5,0.8-1c0.4-0.5,0.8-1.2,0.9-1.5
		c0.2-0.6,1.9-1.8,3.6-2.6c0.9-0.4,1-0.4,0.6-0.8c-0.3-0.4-0.3-0.5,0.2-1.2c0.3-0.4,0.7-0.8,0.8-0.8c0.2,0,0.6-0.2,1.1-0.4
		c0.4-0.2,1.1-0.5,1.5-0.6c0.4-0.1,0.8-0.3,0.9-0.4c0.3-0.4,0.8-0.2,2.1,0.9c0.8,0.6,1.7,1.2,2.2,1.3c0.7,0.1,2.5,1.3,4.2,2.7
		c0.2,0.2,0.9,1.3,1.4,2.5c1,2,1,2.3,1,3.8c0,0.9-0.2,2-0.4,2.5c-1.1,2.7-1.5,3-1.7,1.2c-0.1-1-0.1-1.1,0.6-1.8
		c1.4-1.3,0.8-2.9-1.5-4c-0.6-0.3-1.1-0.7-1.2-0.8c-0.1-0.1-0.6-0.5-1.2-0.7c-0.6-0.3-1.5-0.8-2.1-1.2c-0.6-0.4-1.2-0.7-1.3-0.7
		c-0.4,0-0.1,0.6,0.5,1.2c0.4,0.4,1.4,1.5,2.3,2.6c1.9,2.3,2,2.5,1.2,6c-0.6,2.9-0.9,3.8-1.6,4.3c-0.7,0.5-1.2,0.4-0.9-0.2
		c0.1-0.2,0.3-1.1,0.4-2c0.4-2.4,0.3-2.5-3-4.2c-1-0.5-2.3-1.3-2.9-1.7c-1.9-1.3-2-0.9-0.3,1c2,2.3,2.4,3,2.7,4.4
		c0.8,3,0.3,5-1.5,6.1c-1.5,0.9-1.7,0.8-1.8-1.2c-0.1-3.1-0.4-4.2-1.3-5.6c-1.7-2.9-3.6-3.8-7.8-3.5c-1.8,0.1-2.1,0.1-2.1-0.2
		c0-0.2,0.1-0.4,0.3-0.6c0.4-0.4,3.5-1.3,4.2-1.4C404.8,162.6,404.7,162.2,403.7,161.7z M400.3,156.6c0.5-0.3,0.9-0.4,0.9-0.3
		c0,0.5-2.3,3-4.6,5c-2.8,2.5-3.2,2.8-3.2,2.5C393.4,163.2,399.1,157.3,400.3,156.6z M394.8,186.5c0.5,0.5,0.5,0.7-0.1,2
		c-1.4,3.2-2.4,8.5-2.8,14.4c-0.1,1.3-0.2,3.1-0.3,4c-0.1,0.9-0.3,2.6-0.4,3.7c-0.4,3.4-0.7,4.6-1.7,7.8c-1,3-1.4,3.7-1.4,2.5
		c0-0.3-0.1-0.8-0.2-1.2c-0.3-0.6-0.5-5.2-0.5-10.2c0-2.5,0.1-3.5,0.8-7.3c0.9-4.6,1-5,3.3-10.5C393.9,185.9,394,185.7,394.8,186.5z
		 M364.2,204.3c0.3-0.4,1.7-2.3,3.3-4.3c7.2-9,15.9-21.6,20.8-30c0.7-1.1,1.3-2.1,1.4-2.1c0.1,0,0.1,0.4,0.1,0.8
		c-0.1,0.5-0.3,2.1-0.3,3.6c-0.2,2.4-1.1,7.5-1.8,10.4c-0.3,1-3.3,7.1-3.9,8l-0.4,0.5l0.1-0.7c0.1-0.6,0.3-2.2,0.8-5.6
		c0.2-1.6,0.1-2.1-0.5-2.1c-0.1,0-0.6,0.6-1,1.3c-0.4,0.7-1.2,1.8-1.7,2.5c-0.5,0.7-1.5,2-2.1,2.9c-0.7,0.9-1.6,2.2-2.1,2.9
		c-1,1.3-4.7,5.1-8.5,8.4c-1.2,1.1-2.5,2.3-2.7,2.5c-0.3,0.3-0.8,0.7-1.1,1l-0.7,0.5L364.2,204.3z M368.5,240.9
		c0,0.3-0.2,0.6-0.4,0.9c-0.6,0.5-0.6,0.2,0-0.7C368.5,240.5,368.5,240.5,368.5,240.9z M372.7,280.8c-0.7-0.8-1.9-2.7-2.8-4.3
		c-0.5-1-1.2-2.1-1.4-2.5c-0.6-1.1-2.8-7-3.9-10.7c-1.5-5-2.2-8.5-2.5-12.1c-0.2-2.2-0.2-2.7,0.2-4.1c0.3-0.9,0.6-2,0.8-2.5
		c0.3-0.8,0.3-0.7,0.4,2.5c0,4.1,0.5,7.6,1.9,12.5c1.2,4.2,1.5,5.3,2.3,7.8c1,3.1,2.2,6.3,4.1,10.3
		C372.9,280.4,373.2,281.4,372.7,280.8z M376,288.3c0.2-0.2,1.1,0.7,2.3,2.5c0.6,0.9,1,1.7,0.9,1.7
		C378.6,292.4,375.7,288.6,376,288.3z M379.6,304.2c-0.9-1.9-1.1-3.2-0.7-3.2c0.4,0,3.1,2.3,4.6,3.9l1,1l-0.4,0.8
		c-0.2,0.4-0.9,2.1-1.5,3.8c-1.4,3.5-1.7,4.3-2.3,5.1c-0.8,1.1-0.9,0.8-0.8-1.5c0.1-1.1,0.3-3,0.4-4.1
		C380.4,306.6,380.3,306,379.6,304.2z M367.6,332c0.8-1.4,1.6-2.1,3.5-2.9c1.5-0.7,2.4-1.4,3.9-3.3c0.5-0.7,1.1-1.3,1.2-1.3
		c0.4,0,0.2,1-0.5,2.6c-0.8,1.8-1.6,2.6-3,3.3c-0.5,0.3-1.9,1.1-3,1.8c-2,1.2-2.6,1.5-2.6,1.1C367,333.2,367.3,332.6,367.6,332z
		 M357.3,342.4c0.6-2.3,1.4-4.4,2.4-6c1.8-3,5.8-7.9,6.4-7.9c0.4,0-0.1,2.3-0.6,3.4c-0.3,0.6-0.7,1.9-1,3c-0.4,2-0.8,3.5-1.5,5.8
		c-0.4,1.2-0.5,1.5-2.2,2.7c-1,0.8-2.3,1.8-2.8,2.3c-0.6,0.5-1.1,0.9-1.2,0.9C356.5,346.7,356.8,344.4,357.3,342.4z M518.3,714.1
		c-0.1,0-0.2-0.3-0.2-0.7c-0.1-0.4-0.3-1.9-0.6-3.3c-0.3-1.4-0.6-3.5-0.7-4.6c-1-9-1.1-12.2-0.5-17.6c0.2-1.8,0.4-5.7,0.6-8.7
		c0.1-3,0.3-5.4,0.4-5.4c0.1,0,0.2,2.1,0.3,4.6c0.1,2.6,0.3,7.2,0.4,10.2c0.1,3.1,0.3,10,0.3,15.5
		C518.3,709.7,518.3,714.1,518.3,714.1z M533.3,726.8c-0.3,0.1-0.4,0.3-0.4,0.7c0,0.6-0.2,0.6-1.7,0.3l-1-0.3l0.1-2.3
		c0.1-2,0.1-2.6-0.4-4.6c-0.8-3.4-1-5.2-1.4-12.6c-0.2-3.7-0.4-6.9-0.4-7.1c-0.2-0.6-0.8-6.9-1.1-11.6c-0.2-3.2-0.4-4.7-0.5-4.7
		c-0.4,0.1-0.4,2-0.1,10.6c0.3,10.1,0.5,17.1,0.4,16.9c-0.1-0.1-0.2-1.5-0.4-3.1c-0.1-1.7-0.4-4.2-0.6-5.7c-0.2-1.5-0.4-3.9-0.5-5.4
		c-0.2-2.7-0.4-4.3-1-10.7c-0.2-1.8-0.4-4.5-0.5-5.8c-0.2-3.1-0.5-6.7-0.9-9.7c-0.2-1.3-0.6-4.7-1-7.5c-0.9-7-1.1-8.5-1.4-11.4
		c-0.5-6-0.7-8-0.8-11c-0.1-1.7-0.2-4.1-0.3-5.3c-0.1-1.2-0.3-4-0.4-6.3c-0.1-2.3-0.3-4.9-0.4-5.9c-0.5-4.2-1.3-15.8-1.3-18.7
		c0-0.6-0.1-0.7-0.3-0.5c-0.3,0.3-0.3,23.2-0.1,23.6c0.2,0.3,0.5,32.8,0.3,33.6l-0.2,0.7l-0.1-0.8c-0.4-2.4-0.6-4.4-0.8-8.8
		c-0.2-5.1-0.7-11.6-1.1-15.3c-0.1-1.2-0.2-5.7-0.2-10.2c0-5.5,0-8.8-0.2-10.5c-0.2-1.3-0.4-4-0.6-5.8c-0.2-1.8-0.5-4.5-0.7-5.9
		c-0.8-6-1-5.3-1,3.1c0,5.6-0.1,6.9-0.3,6.8c-0.2-0.1-0.4-0.7-0.6-1.4c-0.2-0.7-0.7-2.3-1-3.6c-0.9-2.9-1.1-6.2-1.2-12.6
		c0-5-0.2-9.5-0.7-13.6c-0.1-1.2-0.4-3.8-0.6-5.8c-0.2-2-0.6-4.9-0.9-6.5c-1.1-5.3-1.4-7.7-1.4-10.1c0-2.6-0.2-4.4-0.4-4.4
		c-0.1,0-0.2,1.7-0.3,3.9c-0.1,2.1-0.3,4.3-0.4,4.9c-0.3,1.3-0.4,6,0,7.8c0.1,0.8,0.4,3,0.5,4.9c0.3,3.7,0.4,5.5,1.1,10.3
		c0.6,4,1.1,10.1,1.1,12.3c0,1,0.1,3,0.2,4.4c0.2,2,0.2,4.9-0.1,12.1c-0.4,10.5-0.4,15.8-0.1,19.8c0.8,10.4,0.8,15.9,0.7,46.7
		c-0.1,17.7,0,22.7,0.7,28.2c0.1,1,0.3,5.2,0.4,9.4c0.1,7,0.1,7.5-0.3,7.7c-0.2,0.1-0.7,0.2-1.1,0.1l-0.6-0.1l-0.1-6.4
		c-0.2-7.1-0.3-7.7-1.6-8.2c-0.8-0.4-1.6-0.2-3,0.6c-0.6,0.3-1.5,0.5-4.3,0.7c-2,0.1-3.7,0.2-3.9,0.1c-0.2-0.1-0.4-0.6-0.5-1.3
		c-0.1-0.6-0.5-2.2-0.9-3.4c-1.1-3.2-1.1-3.1-0.3-4.5c0.4-0.7,0.7-1.6,0.7-1.9c0-0.3,0.2-1.5,0.4-2.6c0.3-1.1,0.4-2.1,0.3-2.2
		c-0.1-0.1-1.1,1.2-2.4,3c-1.2,1.8-3.4,4.9-5,7.1c-2.9,4-3.9,5.9-4.4,8c-0.5,2.1-0.4,3.1,0.4,4.8c0.7,1.4,0.7,1.6,0.4,2.6
		c-0.1,0.6-0.4,1.6-0.5,2.3c-0.2,1-0.4,1.4-0.7,1.5c-0.3,0.1-1.9,0.3-3.6,0.4c-1.7,0.1-3.6,0.4-4.1,0.6c-0.6,0.2-3.8,1.7-7.1,3.3
		c-3.4,1.6-6.2,3-6.4,3c-0.1,0-0.7-0.5-1.2-1.1c-1.6-1.9-5.1-3.6-8.5-4.3c-3-0.6-3.7-0.3-5.8,2.5c-0.9,1.2-2.5,2.9-3.5,3.9
		c-1.1,1-2.3,2.3-2.8,2.9c-1,1.4-1.8,2.3-1.8,2.1c0-0.6,0.9-2.6,2.1-4.6c1.5-2.5,1.9-3.3,2.2-4.4c0.3-1,0.8-4.6,0.9-5.9
		c0-1.8,0.2-2.3,0.9-2.3c0.4,0,0.5-0.1,0.5-0.3c-0.1-0.2-0.2-0.8-0.4-1.4c-0.3-0.9-0.2-1.3,0.3-3.6c1-4.6,0.9-10-0.2-13.6
		c-0.6-1.9-0.6-2.1,0.4-2.7c0.7-0.4,2.3-2.1,3.6-3.7c0.5-0.6,0.7-2.5,0.4-3.8c-0.1-0.6-0.6-2-1.1-3c-0.5-1-0.9-2-0.9-2.1
		c0-0.1,0.4-1.1,0.8-2.2c0.5-1.2,0.8-2.5,0.9-3.5c0.2-2.2-0.7-10-1.4-12.5c-1.1-3.8-1.2-4.4-1.4-5.6c-0.1-0.7,0-2.9,0.1-5
		c0.3-4.2,0.4-3.8-1.4-14.3c-1.4-8.1-1.4-8.1-2.2-9.6l-0.7-1.3l0.8-0.9c1.1-1.2,1.4-1.9,2-4.3c0.5-2.4,0.8-2.9,2.1-4.8
		c0.5-0.8,1.2-1.9,1.5-2.5c0.4-0.9,0.8-1.2,1.3-1.4c0.4-0.1,1.5-0.9,2.5-1.7c1-0.8,2-1.5,2.3-1.6c0.3-0.1,0.9-0.3,1.3-0.4
		c0.4-0.2,1.3-0.4,1.8-0.4c1.1-0.1,2.5-0.7,3.7-1.7c0.5-0.4,1.2-0.7,1.8-0.8c2.4-0.2,3.4-1.3,4.3-4.3c0.3-1,0.8-2.5,1.1-3.3
		c0.3-0.9,0.6-1.7,0.6-2c0-0.4-0.5-0.5-0.8-0.2c-0.2,0.3-3.4,2.9-3.7,2.9c-0.1,0-0.3-0.6-0.4-1.3c-0.2-1-0.2-1.5,0-2.3
		c0.2-0.5,0.4-2,0.6-3.2c0.1-1.2,0.5-3.2,0.8-4.5c0.9-3.5,0.6-4.5-0.6-2.5c-0.3,0.5-1.2,1.7-1.8,2.6c-0.7,0.9-1.3,2-1.5,2.5
		c-1,3-1.7,4.4-3,6.1c-1.5,1.8-3.9,6.4-4.2,7.9c-0.1,0.4-0.4,1.1-0.8,1.5c-0.4,0.5-0.7,0.9-0.7,1.1c0,0.6-1,1.5-2.5,2.2
		c-1.1,0.5-1.9,1.1-2.3,1.6c-0.4,0.4-1.1,1-1.6,1.3c-0.5,0.3-1.5,1.1-2.3,1.8c-1.1,1.1-1.5,1.6-2,3.1c-0.4,1.2-0.9,2.1-1.6,2.8
		c-0.5,0.6-1.5,1.8-2.2,2.7c-0.7,0.9-1.8,2-2.5,2.5c-0.7,0.5-1.6,1.2-2,1.6c-0.6,0.7-0.8,0.8-1.7,0.8c-0.6,0-1.5-0.2-2.1-0.5
		c-0.7-0.3-1.6-0.6-2-0.7c-1.2-0.2-2.3-0.8-3.1-1.7c-0.4-0.4-1.1-1.1-1.6-1.6c-0.5-0.5-1.1-1.1-1.3-1.3c-1-1.2-2.8-2.7-3.3-2.7
		c-0.7,0-0.8,0.3-1,3c-0.1,1.9-0.1,2.4,0.2,3c0.2,0.4,0.5,1.2,0.7,1.8c0.4,1.3,1.3,2.5,1.9,2.6c0.2,0.1,0.8,0.7,1.3,1.4
		c0.4,0.7,1.4,1.9,2,2.6c1.2,1.3,1.4,1.7,1,1.7s-3.4-2.1-4.3-3c-0.5-0.5-1.3-1.1-1.7-1.3l-0.7-0.4v1c0,1.5,0.4,2.5,1.7,4.6
		c0.7,1,1.2,2,1.2,2.1c0,0.4-0.4,0.2-1.2-0.4c-0.4-0.4-0.8-0.7-0.9-0.7c-0.1,0-0.1,2.4,0,5.3c0.1,3.2,0.1,8-0.1,11.9l-0.3,6.6
		l-0.8,1.8c-1,2.1-1,3.2-0.3,6.7c0.3,1.2,0.6,3,0.7,4c0.2,1.9,0,14.2-0.3,16.1c-0.1,1-0.2,1.1-1.2,1.6c-0.7,0.3-1.3,0.9-1.7,1.5
		c-0.8,1.2-1.4,1.3-4.4,0.8c-0.7-0.1-0.9-0.1-1.4,0.4c-0.7,0.7-0.7,0.5,0.5,4.6c0.5,1.7,0.9,3.4,0.9,3.9c0,0.6-0.3,1.3-1.2,2.7
		c-0.7,1-1.6,2.7-2.2,3.8c-0.5,1.1-1.1,2-1.2,2c-0.3,0-2.4-2.9-5.7-7.8c-3-4.4-4.4-6.4-4.7-6.6c-0.5-0.3-0.2,0.5,1,2.7
		c0.7,1.2,1.7,3.1,2.3,4.2c1.8,3.5,3.7,6.6,4.9,8.4l1.2,1.8l-0.4,0.8c-0.6,1-2,2.6-2.4,2.5c-0.2-0.1-1.1-1.7-2.1-3.7
		c-2.1-4.2-3.6-6.7-5.9-10c-1.7-2.5-2.2-3.1-2.5-3.1c-0.4,0-0.2,0.6,0.6,2.3c1.8,3.8,5.7,14.7,5.7,15.7c0,0.8-0.7,0.2-2.1-1.6
		c-0.8-1.1-1.7-2.4-2.1-3c-1.8-2.9-3.3-4.2-3-2.7c0.4,1.5,1.9,6.2,2.5,7.7c0.1,0.3-0.1,0.5-0.6,0.9c-0.4,0.3-2.1,1.7-3.8,3.2
		c-2.7,2.4-3.3,2.8-5.8,4c-1.5,0.7-3,1.3-3.2,1.3c-0.3,0-1.5-0.3-2.8-0.6c-1.3-0.3-3.1-0.7-4.2-0.8c-1-0.1-2.7-0.4-3.8-0.5l-2-0.3
		l0.1-1.3c0-0.9,0.3-1.8,0.8-2.8c0.6-1.4,0.7-1.6,0.5-2.8c-0.4-3.6-0.6-4.8-0.8-7c-0.4-3.7-0.7-3.8-1.2-0.4
		c-0.2,1.1-0.4,2.2-0.5,2.4c-0.3,0.6-0.3-2.9,0.1-5.2c1.2-7.1,1-17.7-0.4-22.1c-0.6-2-1-2-1.8-0.3c-0.8,1.8-1.4,5.2-1.6,9
		c-0.2,4.9-0.5,6.8-1.5,10c-0.7,2.1-1,3.6-1.2,5.8c-0.2,2.2-0.5,3.7-1.1,5.5c-1.3,4-1.5,4.4-3.2,5.2c-1.1,0.5-1.8,1.1-2.6,2
		l-1.1,1.3l-1.3-0.2c-3-0.4-5-0.9-8.6-2.5c-4.4-2-11.8-4.9-13.4-5.2c-0.6-0.2-1.4-0.2-1.8-0.1c-0.4,0.1-1.1,0-2-0.3
		c-0.8-0.3-2.4-0.6-3.7-0.8c-3.6-0.5-3.3-0.3-3.2-2.3c0.1-1.2,0.4-2.5,1-4.1c0.5-1.3,1-3,1.1-3.8c0.4-2.2,0.7-9.9,0.9-22.8
		c0.3-18.6,0.4-19,4.1-24.3c1.7-2.5,2.5-4.4,3.5-8.4c1.5-5.9,2.1-7.2,4.7-10.1c1.9-2.1,6.5-6.5,11.6-11.2c1.8-1.6,2.4-2.4,3.1-4.3
		c1.4-3.7,2.9-12.4,3.6-20.9c0.1-1.4,0.4-3.1,0.7-3.8c0.7-2,1.4-5.4,1.4-6.9c0-0.8-0.3-2.4-0.7-3.9c-2-7.3-1.8-6-1.6-12.2
		c0.1-5.4,0.1-5.6,0.8-7.6c0.7-2,0.7-2.2,0.8-7.3l0.1-5.3l1.1-1.8c1.1-1.9,1.2-2.5,0.9-4.8c-0.2-1.3,0-2.8,1-6.5
		c1.1-4.1,2-9,2.6-13.3c0.4-3,0.4-4.2,0.3-7.4c-0.1-2.8-0.1-4.1,0.1-4.9c0.4-1.4,0.3-10.3,0-13.1c-0.3-1.8-1-6.3-1.6-9.2
		c-0.2-0.9-0.2-2.4-0.1-4.7c0.1-1.9,0.2-5.4,0.2-7.8c0-3.6,0.1-4.3,0.3-3.8c2.3,4.9,2.6,5.9,3.1,8.3c0.3,1.4,0.7,3.2,0.9,3.9
		c0.2,0.7,0.3,1.7,0.3,2.3c0,0.5,0.1,1,0.2,1.1c0.1,0.1,0.3,1,0.3,2c0.2,2.4,0.7,5.5,0.8,5.6c0.1,0.1,0.2-2.9,0.3-6.6
		c0.1-3.7,0.2-8.8,0.3-11.2c0.2-4.4,0.2-4.5,1-6.7c1.3-3.5,1.7-4.9,1.9-7.7c0.3-3.3,0.4-3.4,0.9-2.4c0.5,0.9,0.9,1.3,0.9,0.8
		c0-0.2-0.2-1.1-0.5-2.2c-0.8-3-0.1-3.9,1-1.6l0.6,1.3l0.1-0.8c0.1-0.8-0.7-4.2-1.6-6.7c-1.2-3.4-2.2-5.9-2.5-6.4
		c-0.2-0.3-0.4-0.8-0.6-1.3c-0.3-0.8-0.6-1.6-2.3-5.6c-0.3-0.6-1-1.8-1.6-2.6c-1.4-1.8-1.9-3-2.2-5c-0.1-0.9-0.4-2.1-0.7-2.7
		c-0.2-0.6-0.4-1.5-0.4-2c0-0.6-0.1-0.9-0.3-0.9c-0.5,0-0.8,3.2-0.8,7.8c0,4.8,0.1,5.2,1.4,8.2c0.7,1.6,0.9,2.5,1.1,4.3
		c0.1,1.2,0.3,2.7,0.4,3.4c0.1,0.7,0.1,1.2-0.1,1.2c-0.1,0-0.6-0.5-1-1.1c-1.1-1.6-2.2-2.3-3.2-2.1l-0.8,0.2l0.1-1.3
		c0.1-0.7,0.2-1.7,0.4-2.1c0.3-0.9,0.2-3.3-0.3-7.3c-0.4-3.2-0.4-7.9,0-14.5c0.2-4.2,0.3-6.4,0.1-10.1c-0.1-2.6-0.2-4.7-0.2-4.8
		c0.1-0.1,0.8,1.4,1.4,2.7c0.7,1.6,1.5,5.6,1.9,9.5c0.1,1.3,0.4,2.6,0.5,2.9c0.3,0.8,0.5-14.2,0.2-17.1c-0.2-1.8-0.4-2.3-1.6-4.8
		c-0.8-1.5-1.8-3.9-2.2-5.1c-0.5-1.3-1.2-3.4-1.7-4.6c-0.5-1.2-1.1-3.3-1.4-4.5c-0.3-1.2-0.6-2.8-0.8-3.5c-1-3.9-1.4-7.5-1-10.2
		c0.3-2.4,1-5.7,1.6-7.7c0.8-3.1,1.1-4.6,1.3-7.3c0.4-4.3,0.7-5.8,2-9l0.3-0.7l0.2,0.6c0.1,0.3,0.1,3.1,0.1,6.2
		c-0.1,4.6-0.2,6.2-0.7,8.8c-0.7,4.2-0.8,7.8-0.1,12.2c0.7,4.6,0.8,4.9,1.1,5.6l0.3,0.7l0.2-0.8c0.1-0.4,0.1-1,0-1.2
		c-0.1-0.2,0-1.5,0.2-2.9c0.2-1.4,0.3-3.1,0.2-3.8c-0.2-2.1,0.7-6.5,1.8-9.2c0.4-1,2.1-3.1,2.5-3.1c0.2,0,0.4,0.4,0.6,1
		c0.4,1.4,1.8,2.7,3.9,3.5c2.1,0.8,4,1.1,8.9,1.3c2,0.1,3.8,0.2,4.1,0.3c0.3,0.1,0.8,0.6,1.1,1.1c0.5,0.9,0.6,1.1,0.3,1.8
		c-0.2,0.4-0.8,1.8-1.5,3c-0.6,1.2-1.5,2.9-1.8,3.8c-0.3,0.9-0.6,1.8-0.8,1.9c-0.1,0.1-0.3,0.6-0.3,0.9c-0.1,0.7-0.9,3.6-1.8,6.7
		c-1,3.4-1.7,3.9-5.2,4.1l-2.4,0.1l-2.3-0.9c-1.3-0.5-2.6-1.1-3-1.4c-0.3-0.2-1.1-0.7-1.7-0.9c-0.6-0.3-1.5-0.8-1.9-1
		c-0.5-0.3-0.9-0.5-0.9-0.4c-0.3,0.3,1.2,5.1,2.1,7c0.5,1,2.7,3.4,3.6,3.8c0.9,0.5,5.2,1.9,6.3,2c1.3,0.2,1.9,0.8,2.8,3.3
		c0.8,2,0.8,2.6,0.4,4.7c-0.3,1.2-0.3,1.7,0,2.5c0.1,0.6,0.3,1.1,0.4,1.2c0.3,0.3,1.7-2.3,2.7-4.6c0.7-1.9,1.8-3.9,2.8-5.4
		c0.1-0.1,3.7-0.1,4.7,0.1c0.5,0.1,2.1,0.6,3.5,1.2c1.4,0.6,3,1.2,3.6,1.5c1.3,0.5,2.9,1,4.4,1.2c0.8,0.1,1.2,0.3,2,1.1
		c1,1.1,1.2,1.7,1.2,3.8l0,1.6l-1.5,1.1c-2.6,2-3.2,2.1-8,2.4c-2.3,0.1-5.8,0.1-7.8,0.1c-2.6-0.1-4-0.1-4.8,0.1
		c-1.1,0.3-1.2,0.2-1.7-0.3c-0.3-0.3-0.5-0.8-0.5-1.1c0-1-0.3-2-0.5-2c-0.1,0-0.6,0.8-1.1,1.8l-0.8,1.8l-0.9-0.2
		c-0.5-0.1-1.8-0.2-2.8-0.3l-1.9-0.1l-0.5-1c-0.6-1.3-1.1-1.7-2.5-2.5c-1.8-1-1.9-0.9-1.8,0.6c0.2,1.8,0.9,3.2,2.2,4
		c0.6,0.4,1.8,1.2,2.8,1.8c1.9,1.2,3.8,2.1,4.7,2.1c0.3,0,0.6,0.2,0.7,0.3c0.1,0.2-0.2,1.3-0.6,2.5c-0.8,2.3-0.8,3.1-0.5,6.2
		c0.2,1.6,0.2,2.4-0.1,3.6l-0.3,1.6l-0.9-0.1c-2-0.2-3.5-1.6-4.2-4c-0.2-0.7-0.5-1.7-0.7-2.2c-0.2-0.5-0.4-1.5-0.6-2.2
		c-0.1-0.8-0.3-1.6-0.4-2c-0.1-0.4-0.3-1.1-0.3-1.7c-0.1-0.5-0.3-1.1-0.4-1.3c-0.1-0.2-0.2,1-0.2,3.5c0,6.1,0.6,8.5,2.8,10.7
		c1,1,1.4,1.2,2.9,1.7c2.5,0.7,2.7,0.8,2.9,1.5c0.2,0.7,1.7,3.2,2.1,3.3c0.2,0.1,0.2-0.3,0.2-1.5c-0.1-0.9,0-1.8,0.1-1.9
		c0.2-0.3,0.8-0.3,4.4-0.1c3.3,0.2,4.4,0.2,5,0c0.9-0.3,4.9-3,4.9-3.3c0-0.1-0.4-0.2-1.1-0.1c-1.3,0.2-1.4,0-0.3-0.7
		c0.4-0.3,0.8-0.6,0.8-0.8c0-0.4-2.9,0-4.6,0.5c-1.4,0.5-3.5,0.6-5.8,0.3c-1.3-0.2-2-0.8-2.5-2.4c-0.2-0.6-0.5-1.4-0.7-1.7
		c-0.3-0.4-0.3-1-0.2-3.4c0.1-2.1,0.1-3.2-0.2-4.4c-0.2-0.9-0.3-1.6-0.3-1.7c0-0.3,0.9-0.5,1.7-0.4c0.4,0,1.1-0.1,1.6-0.4
		c1.1-0.6,1.5-0.6,2.5,0c5.4,3.1,7.8,3.7,10,2.6c0.6-0.3,1.6-0.6,2.2-0.7c1.1-0.2,2.7-0.8,2.9-1.2c0.2-0.3,3.5-1.8,3.7-1.7
		c0.2,0.2-0.7,4.4-1.5,7.2c-0.3,1.2-1.2,2.5-3,4.3c-0.6,0.6-1.1,1.4-1.3,2c-0.5,1.7-0.1,1.7,2,0.1c0.7-0.5,1.3-0.9,1.5-0.9
		c0.1,0,0.3,0.3,0.4,0.7c0.1,0.4,0.4,1.3,0.7,2s0.7,1.8,0.9,2.6c0.3,0.9,0.8,1.8,1.7,3c1.4,1.8,1.9,2.1,1.6,1.1
		c-0.1-0.3-0.2-1.1-0.3-1.7c-0.2-1.3,0.1-1.5,1.4-0.9c1.5,0.7,5.9,3.7,8,5.4c1.9,1.6,3.3,2.3,5.3,2.7c0.5,0.1,2.3,0.5,4,0.8
		c5.4,1.1,6.4,1.3,6.9,0.8c0.6-0.5,0.5-0.7-0.3-0.8c-1.4-0.3-5-2.5-6-3.7c-0.3-0.3-0.2-0.3,0.8-0.2c1.5,0.2,1.2-0.1-1-1.2
		c-2.1-1.1-2.6-1.5-2.6-2c0-0.2,0.1-0.3,0.4-0.2c3.8,1.6,4.8,1.4,1.6-0.2c-3.3-1.6-5.1-2.7-6.1-3.7c-0.7-0.7-1.1-1.4-0.8-1.4
		c0.1,0,1.2,0.5,2.5,1c1.4,0.6,2.7,1,3,0.9c0.5-0.1,0.5-0.1,0.1-0.3c-1-0.4-6.8-3.8-7.2-4.2c-0.9-0.8-0.3-0.8,2.1,0.2
		c2.7,1.1,3.8,1.4,3.8,1.1c0-0.1-0.3-0.4-0.6-0.5c-2.3-1.2-7.7-4.4-8.1-4.8c-0.8-0.8-0.4-0.9,1.1-0.3c1.3,0.5,1.8,0.5,1.5,0.1
		c-0.1-0.1-1.4-1-3-1.9c-2.7-1.6-2.9-1.8-3.4-2.8c-0.3-0.6-0.7-2.3-0.9-3.8c-0.3-1.5-0.6-3.7-0.9-4.7c-0.3-1.6-0.4-2.4-0.2-4.7
		c0.2-3,0.4-4.2,0.9-6.5c0.2-0.8,0.4-1.7,0.5-2.1c0.1-0.3,0.2-0.6,0.3-0.6c0.1,0,0.7,0.8,1.3,1.7c1,1.4,1.3,1.7,2.6,2.4
		c1.4,0.7,1.6,0.7,3.2,0.6c2.5-0.2,7.2-1.8,9.5-3.4c2.2-1.4,3.5-2.9,4.8-5.5c0.9-1.7,2.2-5.4,2-5.6c-0.1-0.1-0.3,0.2-0.6,0.6
		c-1.1,1.5-4.3,4.5-5.9,5.3c-3,1.6-7.9,2.9-11.1,2.9c-2.5,0.1-3.3-0.3-5.3-2.1c-0.6-0.6-1.2-1.1-1.3-1c0,0.1-0.2,0.4-0.4,0.8
		c-0.8,1.6-1.5,2.4-2.7,3.3c-1.1,0.7-1.6,0.9-2.3,0.9c-1.1,0-3.6-0.7-5.2-1.6c-0.7-0.3-2-0.8-2.9-1.1c-2.5-0.8-3.5-1.4-5.4-3.3
		c-1.8-1.8-2.1-2.6-3.2-6.4c-0.4-1.6-0.4-4.7,0.1-7c0.2-1.1,0.6-3.1,0.7-4.4c0.4-3.5,0.7-4.1,2.6-5c2.4-1.1,2.3-1.1,4.2,0.3
		c0.9,0.7,2.2,1.6,3,2.1c0.7,0.5,1.9,1.5,2.6,2.1c1.1,1,1.7,1.4,3.7,2.1c2.6,1,4.1,1.2,5.3,0.6c0.8-0.4,1.5-1,1.5-1.2
		c0-0.1-0.6-0.1-1.4-0.1c-0.9,0-1.7-0.1-2.2-0.4c-0.4-0.2-1.5-0.7-2.3-1c-1.6-0.6-1.6-0.6-2.3-2c-0.4-0.8-0.9-2-1.1-2.7
		c-0.2-0.6-0.5-1.2-0.7-1.3c-0.7-0.3-1.5-2.1-1.7-3.9c-0.1-1.4-0.3-1.8-0.9-2.8c-0.4-0.6-0.9-1.4-1-1.8c-0.5-1.4-0.1-3.2,1.2-5.2
		c0.4-0.6,1.1-1.9,1.6-2.8l0.9-1.7l1.3-0.3c1.1-0.3,1.5-0.3,3.1,0c1,0.2,1.9,0.3,2,0.2c0.3-0.2-0.2-1.2-1.6-2.8
		c-0.5-0.6-0.9-1.2-0.9-1.3c0-0.4-1.8-2.1-2.2-2.1c-0.5,0-3.3-0.8-5.9-1.7c-2.9-1-4.8-1-2.6,0c0.4,0.2,1.3,0.8,1.9,1.4
		c1,0.9,1.3,1.3,1.5,2.3c0.2,0.7,0.6,1.5,0.9,1.8c0.3,0.3,0.6,0.7,0.6,0.8c0,0.1-0.8,1.4-1.8,2.9c-0.9,1.5-2.4,3.8-3.3,5.2
		c-0.9,1.4-2,3.1-2.6,3.7c-0.6,0.6-1.2,1.5-1.4,1.9c-0.6,1.1-3,1.5-4.4,0.8c-2-1.1-4.6-2.8-6.8-4.4c-1.3-1-3.3-2.2-4.4-2.8
		c-3.2-1.7-4-3.3-4-8.6c0-1.7-0.1-3.1-0.2-3.1c-0.3,0-1.1,1.9-1.7,4.3c-0.5,1.7-0.6,2.7-0.6,4.4c0,1.9-0.1,2.4-0.6,3.7
		c-0.9,2.1-2,4-2.2,3.7c-0.1-0.1,0-1,0.3-2.3c0.8-3.5,1-6.2,0.6-9c-0.9-6.7-1-8.3-0.6-10.5c0.2-1.1,0.4-2.5,0.5-3
		c0.1-0.6,0.7-1.7,1.5-2.9c1.5-2.1,1.8-2.5,3.4-3.8c1.4-1.1,2-2,2.4-3.5c0.5-1.8,2.3-4,4.7-5.8c1.1-0.8,2.1-1.5,2.3-1.5
		c0.2,0,0.7-0.2,1.2-0.4c0.7-0.3,1-0.8,1.6-1.8c0.6-1.2,2.2-2.7,2.9-2.7c0.3,0,0.3,0.2-0.3,1.7c-0.8,1.9-2.9,5.1-4.6,6.9
		c-1.5,1.6-4.6,5.8-5.2,7.3c-1.6,3.4-2.9,6.6-2.8,6.9c0,0.2,1.2-1.3,2.5-3.3c2.8-4.2,3.7-5.2,4.9-5.5c1.9-0.4,3,0.3,3.9,2.2
		c0.5,1.1,1.2,1.9,3,3.6c5.8,5.6,10.1,7.7,13.9,6.8c1-0.2,2.9-1.5,4.2-2.8c1-1,1.1-1.5,0.2-0.9c-0.4,0.2-0.6,0.2-1.3-0.1
		c-0.9-0.5-1.3-0.3-0.7,0.3c0.4,0.5,0.4,0.5,0,0.8c-0.2,0.2-0.5,0.3-0.6,0.3c-0.1,0-1.1-0.7-2.3-1.6c-3.3-2.4-3.6-2.4-1.4,0
		c0.7,0.8,1.3,1.5,1.2,1.5c-0.1,0.1-1.6-0.9-3.5-2.3c-2.6-2-4.7-3.5-4.9-3.4c-0.1,0.1,0.8,1.1,1.9,2.2c1.1,1.1,2,2.1,2,2.2
		c-0.2,0.1-2.2-1.3-4-2.7c-3-2.5-5-4.4-5.7-5.6c-0.8-1.2-0.8-1.4-0.8-3.2c0-1.1,0.1-2.5,0.3-3.1c0.2-0.7,0.5-2.3,0.8-3.5
		c0.3-1.2,0.7-2.7,0.9-3.1c0.7-1.7,1.5-3.3,1.7-3.7c0.9-1.4,7-12.1,7.4-13.1c0.2-0.5,0.6-2,0.8-3.4c0.4-2.4,0.8-3.8,2-6.7
		c0.3-0.7,0.7-2.1,0.9-3.1c0.2-1,0.6-2.7,0.8-3.7c0.3-1,0.6-2.5,0.8-3.3c0.2-0.8,0.4-1.4,0.5-1.4c0.2,0,0.7,0.8,1.7,2.8
		c0.5,1,1.6,3,2.5,4.4c0.9,1.4,1.6,2.7,1.6,2.8s0.2,0.4,0.4,0.8c0.4,0.5,0.4,0.5,0.4,0.1c0-0.5-0.4-1.8-1.3-3.8
		c-0.3-0.8-1-2.4-1.4-3.7c-0.5-1.3-1.1-3.2-1.5-4.2c-0.8-2.2-0.8-2.6-0.3-3.5c0.4-0.9,0.6-1,1.9-1.5c0.6-0.2,1.2-0.5,1.3-0.7
		c0.3-0.3,0.2-0.3-0.7-0.3c-1,0-1.7-0.4-1.4-0.9c0.2-0.3-0.5-5.4-0.8-5.8c-0.1-0.2-0.3-0.3-0.4-0.2c-0.1,0.1-0.4,1.4-0.8,3l-0.7,2.8
		l-1.9,0.1c-1,0-2,0-2.1-0.1c-0.8-0.6-0.1-10,1.1-13.9c1.1-3.7,1.1-3.7,0.3-5.2c-0.4-0.7-1.1-1.9-1.4-2.6c-0.4-0.7-1.4-2.8-2.3-4.6
		c-0.9-1.8-1.9-3.8-2.2-4.4c-0.3-0.6-0.6-1.2-0.7-1.2c-0.3,0-0.3,0,0.6,3.2c0.9,3.3,1.6,5,2.9,7.8c1,2,1.2,2.9,0.7,3.6
		c-0.3,0.4-0.3,0.4-0.6,0c-0.6-0.7-3.1-4.8-3.1-5.2c0-0.2-0.1-0.3-0.3-0.2c-0.4,0.1-0.3,0.4,0.6,3.3c0.8,2.6,1.4,5.5,1.2,5.8
		c-0.1,0.1-0.6-0.3-1.1-0.7c-1.4-1.4-3.5-6-5.9-13.1c-1.5-4.4-2.1-5.7-4.3-8.9c-1.6-2.4-1.9-3-2.7-6.5c-0.2-0.9-0.7-2.2-1-2.8
		c-0.5-0.9-0.7-1.4-0.7-2.6c0-1.6,0.3-2.1,1.5-2.8c1.5-0.9,2-0.9,3.3-0.1c0.7,0.4,1.3,1,1.5,1.4c1,2.4,1.4,2.5,1.2,0.3
		c-0.2-2,0.1-2.3,1.5-2.1c0.7,0.1,1.1,0.4,1.6,0.9c0.4,0.4,1.2,1.3,1.8,2c0.6,0.7,1.5,2.1,2,3.1c0.5,1,1.3,2.5,1.9,3.4
		c2.5,3.9,3.8,6.8,5,11.1c1.2,4.4,1.8,5.9,3.7,8c2.8,3.2,4.5,4.6,8.5,6.8c3.3,1.8,4.9,3,7.5,5.6c2.7,2.7,4.3,4.7,5.6,7.3
		c1.6,3.1,2.4,6.1,2.8,10.9c0.3,2.8,0.6,3.8,1.3,4.5c0.4,0.4,0.8,0.4,2.9,0.4c1.5,0,3,0.1,4,0.3c1.5,0.3,1.5,0.3,3.4-0.3
		c1.1-0.3,2.1-0.8,2.4-1c1.1-1,1.5-0.2,1.2,2.2c-0.1,1-0.3,2.3-0.3,3c-0.2,1.7-0.8,2.6-2.3,3.4c-1.5,0.7-2.1,1.3-2.7,2.4
		c-0.3,0.4-0.8,1-1.2,1.2c-1.5,0.9-2.1,1.8-1,1.6c0.8-0.2,3.7-0.5,3.7-0.3c0,0.1-0.4,1.2-0.8,2.6c-0.4,1.4-1,3.3-1.3,4.3
		c-0.7,2.5-0.9,2.6-1.7,0.9c-0.3-0.8-0.8-1.8-0.9-2.3c-0.3-0.9-0.3-0.9,0.4-1.6c1-1,2.2-2.6,2.1-2.7c-0.1-0.1-0.7,0.1-1.5,0.4
		c-0.8,0.3-1.5,0.4-1.6,0.3c-0.1-0.1-0.3-0.8-0.4-1.6c-0.2-1.1-0.1-1.5,0.1-1.8c0.4-0.5,0.4-0.7-0.1-0.8c-0.2-0.1-0.5-0.5-0.7-1
		c-0.5-1.5-1.5-2.8-3.6-4.8c-3.4-3.1-3.5-3.1-1.7,0.2c1.1,2,1.7,3.6,3.1,8.1c0.3,0.9,0.9,2.5,1.3,3.5c1.9,4.2,1.8,5.7-0.9,7.6
		c-2.3,1.6-3.6,4.3-3.6,7.2c0,0.8,0,0.8,0.8,0.6c1.4-0.3,2.4-0.9,3.7-2.4c0.7-0.8,1.6-1.6,2-1.8c0.4-0.2,0.8-0.6,1-0.8
		c0.5-0.8,2.7-2.9,3-2.9c0.4,0,3.4-2.7,3.8-3.4c0.5-1.1,0.3-1.3-0.9-0.9c-0.5,0.2-1.1,0.4-1.2,0.5c-0.1,0.1-0.3,0.2-0.5,0.2
		c-0.2,0,0-0.5,0.5-1.5c0.5-1,0.9-2.4,1.3-4.3c0.3-1.5,0.7-3.1,0.8-3.6c0.7-2.2,2.3-6.3,2.9-7.2c0.5-0.8,0.7-1.4,0.8-2.4
		c0.1-1.4,0.3-1.6,1-1c0.3,0.3,0.4,0.5,0.3,1.7c-0.1,1.2-0.1,1.5,0.3,1.8c0.6,0.6,1.3,0.5,2.4-0.3c1.3-0.9,1.6-0.6,0.7,0.6
		c-0.5,0.7-0.8,1.2-0.8,2c-0.1,0.8,0,1.1,0.2,1.1c0.6,0,1.6-0.7,2.1-1.5c0.4-0.7,0.7-0.9,1.4-1c0.5-0.1,1.2-0.4,1.6-0.7
		c0.9-0.6,2.7-1.2,4.5-1.3c1.1-0.1,1.3-0.1,1.5,0.4c0.2,0.4,0.6,0.6,1.2,0.8c1.1,0.3,1.7,0.8,2.5,2.2c0.5,0.8,0.6,1.2,0.5,2
		c-0.2,1.3,0.3,2.3,1.2,2.7c0.9,0.4,1.5,0.9,2.5,2.2c1.1,1.4,1.1,1.9,0.1,1.9c-0.5,0-1,0.3-1.6,0.9l-0.9,0.9l-1.2-0.3
		c-0.8-0.2-1.4-0.6-1.9-1c-0.9-1-1.4-0.8-2.5,0.9c-0.5,0.8-1.1,1.8-1.3,2.1c-0.2,0.3-0.6,1.2-0.9,2l-0.5,1.4l-1.8,0.1
		c-1.8,0.1-2.4,0.4-2.6,1.1c-0.3,1.1,1.2,1.4,3.8,0.7c0.7-0.2,1.6-0.4,2-0.4c0.4-0.1,1.7-0.3,3-0.6c1.4-0.3,3-0.4,3.9-0.4l1.6,0.1
		l0.2,1.5c0.1,0.8,0.4,1.8,0.7,2.3c0.3,0.4,0.5,1,0.5,1.3c0,0.6-0.9,1.2-1.8,1.2c-0.9,0-3.7-1.2-5-2.1c-0.6-0.4-1.2-0.8-1.3-0.8
		c-0.1,0-0.4-0.2-0.6-0.4c-0.6-0.7-1.5-0.6-2.3,0.3c-0.5,0.6-0.7,0.9-0.7,1.6c0,0.9,0.2,1.1,0.6,0.3c0.2-0.4,0.4-0.5,1.4-0.6
		c0.9-0.1,1.5,0.1,2.7,0.6c0.8,0.4,2.2,1,3.1,1.4c1.5,0.7,3.2,2,3.2,2.4c0,0.1-0.4,0.4-0.9,0.8c-0.9,0.6-1,0.6-1.9,0.4
		c-0.6-0.2-1.6-0.6-2.2-1.1c-1.5-0.9-1.9-0.9-1.1,0.1c0.3,0.4,0.6,0.8,0.6,1c0,1.1-6.1,3.2-7.3,2.5c-0.8-0.4-1.9-1.6-2.1-2.4
		c-0.1-0.4-0.6-1.4-0.9-2.2c-0.3-0.8-0.6-1.5-0.6-1.5c0-0.2-1.2-2.5-1.7-3.2c-0.3-0.4-0.7-1.3-0.9-2c-0.2-0.7-0.5-1.6-0.6-1.9
		c-0.1-0.4-0.2-1.4-0.2-2.3c0-1.9-0.3-2.9-2-6.3c-0.3-0.6-0.6-1.7-0.7-2.4c-0.1-1.1-0.2-1.2-0.4-0.7c-0.2,0.3-0.3,1.3-0.4,2.2
		c0,1-0.2,2-0.4,2.4c-0.2,0.4-0.4,0.8-0.4,1c0,0.2-0.4,1.3-1,2.4c-0.6,1.2-1,2.3-1,2.7c0.1,0.5,0.3,0.3,1.7-1.6
		c0.9-1.2,1.8-2.2,2-2.2c0.5,0,0.8,0.8,1,2.8c0.1,1.3,0.4,2.3,0.8,3.1c0.4,0.7,0.5,1.2,0.4,1.4c-0.1,0.1-1.1,0.3-2.1,0.4
		c-1.9,0.2-3.5,0.5-4.2,0.9c-0.6,0.3-0.4,0.4,0.9,0.5c1.3,0.1,3.7,1,3.6,1.3c-0.1,0.4-1,0.4-2.7,0c-1-0.2-2-0.3-2.6-0.3
		c-0.5,0.1-1.7,0.2-2.7,0.4c-2.7,0.3-4.4,1-3.6,1.5c0.3,0.2-0.6,1.6-1.3,2.2c-0.4,0.3-0.7,0.6-0.7,0.8c0,0.3,0.1,0.3,0.8,0
		c0.4-0.2,1-0.3,1.2-0.2c0.3,0.1,1-0.1,1.7-0.5c1.6-0.8,3.1-0.8,3.9,0c0.3,0.3,0.5,0.7,0.5,0.8c0,0.1,1,1.2,2.2,2.4
		c2,2,4.7,5.5,4.4,5.8c-0.3,0.4-2.1-0.9-3.7-2.7c-2.3-2.5-3.3-3.2-5.1-3.6c-1.5-0.3-4.9-0.3-5.6,0.1c-0.4,0.2-0.1,0.7,0.4,0.7
		c0.2,0,0.6,0.1,0.8,0.3c0.4,0.3,0.4,0.3-0.2,0.7c-0.9,0.6-0.5,0.8,1.3,0.8c1.9,0,2.9,0.4,4.6,1.8c1.4,1.2,2.3,1.6,3.4,1.6
		c1,0,1.3,0.3,3.3,2.7c1.2,1.5,3,2.7,5.6,3.8c2.3,0.9,2.4,1,4.9,3.6c3.7,3.8,4.2,4.5,6.1,10.3c0.8,2.3,1.1,1.8,1.2-2.1
		c0.1-2.4,0.4-3.9,0.9-3.9c0.1,0,0.7,0.5,1.5,1.1c0.7,0.6,1.4,1.1,1.5,1.1c0.1,0,0.7,0.5,1.4,1.1c0.6,0.6,1.2,1.1,1.3,1
		c0.1-0.1-0.1-0.8-0.5-1.5c-0.3-0.8-0.6-1.5-0.6-1.6c0-0.1,0.3-0.1,0.7-0.1c1,0.2,3.6,0.5,6.4,0.8c4.4,0.4,5.6,1.1,8.4,4.8
		c1.4,1.8,2.3,4.2,2.9,7.8c0.5,2.8,0.6,10.2,0.1,13.1c-0.2,1-0.4,2.8-0.6,4c-0.2,1.2-0.5,3.3-0.8,4.7c-0.7,4-0.5,8,0.5,12.9
		c0.9,4.3,1.3,9.9,1.1,17.9l-0.1,6l0.7,2.6c1,3.6,1.4,5.4,1.3,5.5c-0.1,0.1-0.5,0-1-0.1c-1.1-0.4-2.7-0.2-4.2,0.3
		c-1.3,0.5-1.4,0.8-0.4,0.9c0.8,0.1,2.3,0.8,3.9,1.7c0.6,0.4,1.2,0.8,1.3,0.8c0.3,0,2.1,1.4,3.2,2.6c0.7,0.7,1.5,1.5,1.7,1.8
		c0.3,0.3,0.6,1,0.7,1.6c0.1,0.6,0.4,1.3,0.5,1.5c0.3,0.6-0.1,1-0.9,1.2c-0.3,0.1-1,0.4-1.4,0.7c-0.4,0.3-1.2,0.7-1.6,1
		c-0.5,0.2-1.2,0.7-1.6,1l-0.7,0.6l1,0.9c0.6,0.5,1.1,1.2,1.3,1.5c0.2,0.5,0.2,0.9,0.1,3.4l-0.1,1.1h-1.1c-1.7,0-3.1,0.9-5.2,3.4
		l-0.5,0.6l-0.7-1.2c-0.4-0.7-1.2-1.8-1.8-2.6c-2.6-3.1-4.9-7-5.7-9.7c-0.1-0.3-0.3-0.6-0.4-0.7c-0.5-0.4-0.6,0.1-0.3,0.9
		c0.2,0.4,0.6,1.8,1,3c0.8,2.6,1.3,3.9,2.3,5.4c1.2,2,0.7,2.1-1.1,0.1c-0.7-0.8-1.4-1.3-1.5-1.2c-0.1,0.1,0.3,1,0.8,2.1
		c0.8,1.6,1.4,2.3,3.2,4.2c2.5,2.5,2.4,2.4,1.4,4l-0.3,0.5l-1.4-1c-1.6-1.2-5.6-5.2-6.7-6.9c-0.9-1.4-1.8-3.9-2.1-6.2
		c-0.1-0.9-0.5-2.6-0.8-3.7c-0.3-1.1-0.7-2.7-0.9-3.5c-0.3-1.2-0.4-1.9-0.2-4.1c0.1-1.8,0.2-2.6,0.4-2.6c0.1,0,1,1.6,2,3.5
		c2.3,4.6,2.6,4.6,1.3,0.1c-0.4-1.4-0.5-2.6-0.6-5.4c0-2,0-3.7,0.1-3.7c0.2-0.1,2.3,1.1,2.5,1.5c1.2,2.7,2.2,4.3,2.5,4.1
		c0.1-0.1,0.2-0.6,0.2-1.2c0-1.7,0.2-2.1,1-2.1c1.5,0,2.6-1.1,4.6-4.5c2.4-4.1,2.9-6.1,2.3-8.8c-0.1-0.5-0.3-1.5-0.5-2.3
		c-0.3-1.4-1.7-4.4-2-4.4c-0.3,0-0.2,0.3,0.1,1.5c0.2,0.9,0.2,1.1-0.4,2.1c-0.3,0.6-1.1,1.6-1.7,2.2c-1.1,1-1.1,1-2.1,0.9
		c-0.6-0.1-1.1-0.2-1.2-0.3c-0.3-0.3-2.4-5.9-3.5-9.3c-1.3-3.7-1.3-3.9-1.6-3.8c-0.1,0.1-0.1,0.3-0.1,0.5c0.1,0.2,0.4,1.6,0.7,3.2
		c0.3,1.5,0.7,3.3,1,3.9c0.5,1.4,1,3.9,0.7,4.2c-0.2,0.2-1.1-0.7-1.1-1.1c0-0.7-1.1-2.8-2.4-4.4c-2.2-2.9-2.5-3.7-3.9-11.8
		c-0.3-1.7-1-4.4-2-7.4c-0.9-2.7-0.9-3.7,0.1-5.6c0.4-0.8,0.8-1.3,0.9-1.2c0.1,0.2,0.2,0.5,1,3.6c0.7,2.7,0.9,2.2,0.5-0.9
		c-0.2-1.5-0.4-2.9-0.5-3.2c-0.1-0.6-0.1-0.6,2-0.1c2.4,0.6,3.5,0.9,3.7,1.1c0.3,0.3,1,0.2,1,0c0-0.1-0.6-0.5-1.4-0.8
		c-0.8-0.3-1.6-0.9-2-1.2c-0.3-0.4-1.1-1-1.8-1.5c-1.1-0.8-1.4-1.2-2.3-3.1c-0.6-1.2-1.5-2.9-1.9-3.7c-0.5-0.8-1.2-2.5-1.7-3.7
		c-0.8-2.1-0.8-2.4-0.8-4.6c0-2.5-0.2-6.4-0.4-7c-0.1-0.4-0.7,1.6-0.7,2.6c0,0.4-0.3,1.4-0.6,2.2c-0.3,0.8-0.6,1.9-0.6,2.5
		c0,0.5-0.1,1-0.2,1s-0.2-0.1-0.2-0.2c0-0.1-0.4-1-1-1.9c-0.6-1.1-1.1-2.3-1.3-3.1c-0.1-0.8-0.7-3.1-1.2-5.2c-1-4-1.6-5.3-3.5-8.1
		c-1.6-2.4-2.5-2.7-1.4-0.4c0.7,1.4,1.6,4.3,2,6.8c0.1,0.8,0.4,2.4,0.7,3.6c0.8,4.1,0.9,5.1,0.7,6.9c-0.1,0.9-0.3,1.7-0.4,1.8
		c-0.1,0.1-0.4-0.2-0.8-0.8c-0.7-1.2-7.2-7.3-7.8-7.3c-0.4,0-0.2,0.3,0.9,1.8c1.9,2.4,1.4,2.6-1.9,0.8c-1.2-0.7-2.5-1.2-2.8-1.2
		c-0.4,0-1.3-0.4-2.2-0.8c-2.1-1.1-2.4-0.9-1.2,0.4c1.1,1.2,1.2,1.5,0.7,1.9c-0.3,0.2-0.5,0.2-1.3-0.3c-0.6-0.3-1.1-0.5-1.1-0.4
		c-0.1,0.1,0.2,0.6,0.5,1.1c0.8,1,0.8,1.2,0.1,2c-0.4,0.4-0.7,0.6-1,0.5c-0.4-0.1-0.4,0-0.4,0.3c0.1,0.3-0.1,0.6-0.7,1.1
		c-1.5,1.2-3.4,1.5-5.6,0.7c-1-0.3-1.6-0.4-2.6-0.3c-0.7,0.1-2.3,0.2-3.6,0.3c-2.2,0.1-2.5,0.1-4.3-0.6c-6.4-2.3-11.4-5.8-13.1-9.2
		c-1.1-2.2-1.2-4.7-0.3-5.7c0.2-0.2,0.7-0.8,1-1.3c0.4-0.5,0.7-0.9,0.8-1c0.4-0.4,2-2.7,1.9-2.8c-0.4-0.4-3.8,2.9-4.6,4.4
		c-1.8,3.3-1.8,6.4-0.2,9.7c0.8,1.7,3.2,4.3,6.3,6.8c1.3,1,4.1,3.4,6.4,5.2c2.2,1.8,4.6,3.7,5.2,4.1c1.5,1,4.2,2,5.9,2.4
		c0.8,0.1,1.4,0.4,1.4,0.5c0,0.1-0.3,0.4-0.6,0.6c-0.3,0.2-1.3,1-2,1.7c-1.7,1.6-2,1.7-5.3,0.8c-1.2-0.3-3.3-0.7-4.7-0.9
		c-3.5-0.5-4.4-0.9-4.4-2c0-0.3-0.1-0.6-0.2-0.7c-0.4-0.3-0.7,0.9-0.7,3c-0.1,3.1,0.4,3.5,4.2,3.7c1.4,0.1,3.3,0.3,4.3,0.6
		c1.1,0.3,2.4,0.4,3.2,0.4c1.2-0.1,1.4,0,2,0.6c1.2,1.1,1.1,1.9-0.3,3.4c-0.4,0.4-1,0.9-1.4,1.1c-0.8,0.4-7.4,0.8-10.6,0.6
		c-2.3-0.2-2.3-0.2-3.1-0.9c-0.7-0.7-0.8-0.8-0.9-0.4c-0.1,0.4,0.1,1.8,0.5,3.1c0.1,0.3-0.1,0.7-0.5,1.3c-0.4,0.4-0.8,1.3-1,2
		c-0.2,0.6-0.6,1.5-0.9,2c-0.5,0.8-0.6,0.8-0.1,0.9c0.4,0.1,2.7-1.1,3.8-2c0.4-0.3,1.1-0.5,2.5-0.7c1-0.1,2.5-0.4,3.3-0.6
		c0.8-0.3,2.6-0.7,3.9-0.9c1.6-0.3,2.9-0.6,3.7-1c1.2-0.6,1.3-0.6,3.1-0.4c1.8,0.2,4.6,0.1,7.8-0.4c3.8-0.6,7-1.2,8-1.6
		c1-0.4,1.7-0.6,1.7-0.3c0,0.3-1.5,2.4-2.3,3.2c-1.1,1.2-2.4,2-4.5,2.7c-1.4,0.5-1.9,0.5-3.4,0.4c-1-0.1-2.1-0.2-2.4-0.3
		c-1.6-0.4,0.3,1.9,2.2,2.7c2,0.8,6.3-0.3,9-2.3c0.4-0.3,0.8-0.5,0.9-0.5c0.2,0.2-3.4,7.1-4.9,9.5c-0.7,1.1-2,3-2.8,4.1
		c-3,3.9-3.9,6.6-3.9,11.2c0,2.1,0.1,2.6,0.3,2.6c0.2,0,0.4-0.3,0.5-1c0.2-1.3,0.4-1.9,1.7-4.1c1.4-2.4,2.8-5.4,3.7-7.7
		c0.7-1.8,0.7-1.9,4.4-5.6c2.1-2.1,4.8-4.7,6.1-5.8c1.3-1.1,3.1-2.9,4-3.9c2.5-2.9,2.3-2.8,2.1-1.1c-0.1,0.9-0.1,1.7,0.1,2.3
		c0.3,0.9,0.3,0.9-0.8,2.2c-0.6,0.7-1.3,1.5-1.7,1.9c-1.1,1.3-3.8,3.5-6.6,5.6c-3.7,2.7-5.9,4.6-6.4,5.2c-0.2,0.3-0.8,1.7-1.4,3.2
		c-0.6,1.5-1.4,3.5-1.8,4.5c-0.4,1-0.9,2.2-0.9,2.8c-0.3,1.7,0.5,4.1,2.1,6.5c0.4,0.6,0.6,1.1,0.6,1.2c-0.1,0.1-0.7-0.2-1.4-0.7
		c-1.8-1.2-2.7-1.6-2.8-1.4c-0.2,0.3,1.3,3.3,2.7,5.5c1,1.5,1.2,2.1,1.2,2.8c0,0.5,0.2,1.5,0.5,2.2l0.5,1.3l-0.6,1.1
		c-0.3,0.6-1,1.4-1.5,1.8c-2.9,2.6-3.8,3.8-3.4,4.6c0.2,0.5,2.3,1.4,3.2,1.4c0.4,0,1.4-0.2,2.3-0.4c0.9-0.3,1.7-0.4,1.8-0.3
		c0.1,0.1,0.3,0.6,0.3,1.3c0.2,1.3,0.7,2.4,1.1,2c0.4-0.4,1.5-4.5,1.7-6c0.1-0.9,0.3-1.4,0.4-1.4c0.6,0,0.7,2.4,0.3,4.5
		c-0.4,1.8-0.3,5.4,0.2,6.5c0.3,0.7,0.3,1,0.1,1.5c-0.4,0.9-0.3,2,0.4,3.4c0.6,1.1,1.6,2.5,1.9,2.5c0.1,0,0-0.8,0-1.8
		c-0.1-1.5-0.1-1.9,0.4-2.9c0.5-1.2,0.5-2.3,0-4.2c-0.1-0.4-0.1-1.3,0.1-2.1c0.4-2.1,0.3-2,1.3-1.5c1.5,0.8,2.4,1.7,3.7,3.9
		c1.4,2.3,1.7,2.9,2.3,5.6l0.4,1.9l-0.6,0.1c-1.1,0.2-1.7,0.7-1.9,1.4c-0.1,0.4-0.7,1.1-1.2,1.7c-1,1-1.2,1.7-0.6,2.2
		c0.7,0.6,1.2,0.6,2.2,0.3l1-0.3l2.2,1.5c1.2,0.8,2.3,1.5,2.4,1.4c0.5-0.3-0.9-3.6-1.8-4.4l-0.7-0.6l0.6-0.2
		c1.1-0.4,1.4-1.7,0.6-3.3c-0.5-1.1-0.5-1.2-0.2-1.2c0.4,0,1.9,1.6,3.3,3.6c0.7,0.9,1.8,2.1,2.4,2.7c2.3,1.9,2.9,2.6,3.1,3.5
		c0.6,2.2,0.9,3.3,0.8,3.4c-0.1,0.1-0.8-0.6-3.9-4.5c-1.5-1.8-2.7-3.2-2.8-3.1c-0.1,0.1,0.3,1.2,0.9,2.4c0.6,1.2,1.5,3.2,2,4.3
		c0.5,1.2,1.2,2.6,1.5,3.1c0.3,0.5,0.4,1,0.3,1.1c-0.3,0.3-1.9-1-3.4-2.7c-0.8-0.9-1.5-1.5-1.6-1.5c-0.1,0.1,0,0.6,0.1,1.2
		c0.1,1.1,0.5,1.6,2.4,3.3c0.3,0.3,1.2,1.4,1.8,2.3c1.4,2.1,1.7,2.5,4,3.7c2.3,1.3,2.9,2.3,1.3,2.3c-2.1,0-2.9,1.1-2.9,4.2
		c0,1.1-0.1,2.3-0.2,2.5c-0.1,0.2-0.3,1.3-0.4,2.3c-0.1,1-0.3,2.1-0.4,2.5l-0.2,0.7l0.8-0.6c0.4-0.3,1-0.8,1.3-1.1
		c0.4-0.4,0.8-1.2,1.4-3c0.4-1.4,0.8-2.8,0.8-3.2c0-0.6,0-0.6,1.5-0.8c1-0.1,1.6,0,2.1,0.2c0.3,0.2,1.1,0.4,1.8,0.4
		c0.7,0.1,1.5,0.3,1.9,0.5c0.6,0.3,2.8,1.2,3,1.2c0.3,0-0.1-1-0.6-1.8c-0.9-1.4-1.7-1.8-3.5-1.9c-1.3-0.1-1.5-0.2-1.6-0.7
		c-0.4-1.1-0.3-1.7,0.9-2.8c1.3-1.2,1.7-1.3,3-0.6c0.7,0.4,0.9,0.7,1.1,1.3c0.3,1.4,1.9,2.9,4.1,3.9c1.1,0.5,2,0.9,2.1,0.9
		c0.4,0,2,0.9,2.7,1.5c0.4,0.3,1,0.7,1.3,0.8c0.7,0.2,0.9,0.8,0.9,2.9c0,0.8,0.2,1.9,0.5,2.7c0.6,1.8,0.5,2.2-0.3,1.5
		c-0.5-0.4-0.6-0.4-0.5-0.1c0.1,0.2,0.1,0.4-0.1,0.4c-0.1,0-0.2,0.3-0.2,0.6c0,0.4,0.3,0.9,1.2,1.8c0.7,0.7,1.2,1.3,1.2,1.4
		c0,0.1,0.4,0.4,0.8,0.6c0.5,0.2,1.1,0.6,1.3,0.9c0.4,0.4,0.8,0.5,3.2,0.6c1.5,0.1,2.8,0.1,3,0c0.3-0.2,0-0.5-0.4-0.5
		c-0.2,0-0.8-0.4-1.2-0.8c-0.7-0.7-1-0.8-1.9-0.8c-1.2,0-1.6-0.4-1-1.2c0.2-0.3,0.3-0.6,0.4-0.6c0.2-0.6,0.7-3.5,0.8-5
		c0.1-1,0.3-2.1,0.4-2.4l0.3-0.6l2.5,1.5c3,1.8,4.1,2.8,5.1,4.9c2,4.1,2,4.7,0.5,7.8c-1.1,2.4-1.3,3.7-0.7,5.5
		c0.7,2,0.7,2.5,0.8,7.3c0.1,3.6,0.2,4.8,0.6,7.2c1.1,5,1.2,6.2,0.7,8c-0.6,2.5-0.7,4.1-0.3,5.2c0.2,0.5,0.4,1.2,0.4,1.5
		c0,0.3,0.2,0.6,0.5,0.8c0.7,0.5,1.1,0,1.2-1.3c0-0.5,0.1-1,0.3-0.9c0.4,0,1.9,3.3,2.2,5c0.2,0.9,0.6,2.4,0.8,3.4
		c0.3,0.9,0.7,2.5,0.9,3.5c0.2,1,0.5,2,0.6,2.3c0.1,0.6,0.4,0.7,0.6,0.2c0.3-0.6,0.1-5.3-0.2-8.7c-0.2-1.8-0.4-4.3-0.6-5.5
		c-0.1-1.2-0.3-2.6-0.5-3.2c-0.2-0.6-0.2-1.8-0.1-2.8c0.2-2.1-0.2-3.4-1.6-5.8c-0.8-1.3-1.1-2.2-1.3-3.6c-0.2-1-0.5-2.5-0.7-3.3
		c-0.2-0.8-0.4-3-0.5-4.8c-0.1-2.7-0.3-3.6-0.7-4.7c-0.3-0.8-0.4-1.5-0.3-1.6c0.2-0.2,2.3,2.1,2.8,3.2c0.7,1.5,2.2,7.9,2.9,12.6
		c0.2,1.5,0.2,2.1,0,3.2c-0.1,0.7-0.3,2-0.3,2.9c0,1.5,0.1,1.8,0.8,3.3c0.7,1.4,1.3,2.2,3.8,4.7c2.4,2.4,3.4,3.7,5.1,6.2
		c1.1,1.7,2.7,3.9,3.4,4.8c2,2.5,3.8,6.1,4.2,8.7c0.1,0.5,0.3,3.4,0.6,6.4c0.3,3,0.5,6.3,0.6,7.3c0.6,5.8,0.7,7.4,0.6,9.6
		c-0.1,1.3-0.2,3.1-0.4,3.8c-0.1,0.8-0.3,1.9-0.5,2.6c-0.1,0.7-0.2,3-0.2,5.1c0,3.7,0,3.9,0.7,5.9c0.6,1.9,0.7,2.3,0.6,4.1
		c-0.1,1.1-0.2,4.6-0.4,7.8c-0.1,3.2-0.3,6.9-0.5,8.3c-0.1,1.3-0.3,6-0.4,10.3c-0.1,8.7-0.1,9.5,1.1,12.2c0.7,1.5,0.8,2,1,5.2
		c0.5,6.3,1,10.1,1.9,14.2c1.5,6.8,2.2,14,1.7,18.1c-0.5,3.5-0.9,14.6-1,22.7c0,9.7-0.2,8.8,1.8,11.4c0.6,0.8,1.2,1.7,1.3,2
		c0.3,1.6,0.6,2.7,0.8,3.1C533.8,726.6,533.7,726.7,533.3,726.8z M441.3,330.2c0.6,0.5,0.6,0.9-0.1,1.1c-0.3,0.1-0.6,0.1-0.6,0.1
		c-1.8-0.3-3.2-0.6-3.3-0.7c-0.1-0.1,0.2-0.2,0.7-0.3c1-0.2,0.8-0.4-1-1c-1.9-0.7-2.1-1.2-0.4-1.3c0.7-0.1,1.5,0,1.9,0.2
		c0.4,0.2,1.4,0.3,2.1,0.3c1.4,0,1.7,0.3,0.8,0.7C440.7,329.4,440.7,329.7,441.3,330.2z M472.7,486.4c0.6,1.3,0.3,1.6-1.1,0.9
		c-1.5-0.6-1.9-0.6-3.8,0.3c-0.9,0.4-1.7,0.8-1.8,0.8c-0.3,0-1.1-0.9-1.5-1.7c-0.5-1.1-0.9-2.3-1.8-5.9c-1-4.1-1.9-6.7-2.4-7.4
		c-0.2-0.3-1.1-1.1-2-1.7c-1.3-0.9-2-1.6-3.2-3.2c-1.9-2.7-2.5-3.2-3.9-4.1c-1.3-0.7-1.7-1.2-3.7-4.7c-1.7-2.9-2.9-4.1-5.1-5.3
		c-1.3-0.7-1.8-1.1-2.2-1.7c-0.6-1-1.4-4-1.4-5c0-0.4-0.1-1-0.2-1.2c-0.1-0.2-0.6-1.6-1.1-3.1c-0.9-2.8-1.5-4-3-6
		c-0.5-0.6-1.6-2.3-2.6-3.7c-2.1-3.1-2.2-3.5-0.8-6.6c0.5-1.1,1.4-3.4,1.9-5c1.1-3.3,0.8-2.9,6.1-7c4.6-3.4,6.9-5.4,8.5-7.3
		c0.8-0.9,1.5-1.6,1.5-1.6c0.5,0,0.9,0.7,1.1,1.8c0.1,0.7,0.3,3,0.4,5.2c0.2,4.5,0.5,5.9,1.8,9c0.5,1.1,1,2.4,1.2,2.9
		c0.4,1.3,1.4,5.1,1.6,6.8c0.1,0.8,0.6,3.4,1,5.7c1.3,7,2.3,14,2.7,18.4c0.4,4.1,1.1,6.1,2.9,8.9c1.5,2.3,3.9,4.5,7.5,7.1l2.8,2
		l0.1,1.4c0.1,0.8,0.3,2.1,0.5,3l0.4,1.5l-0.7,0.8c-0.6,0.7-0.7,0.9-0.7,2.6C472.2,484.9,472.3,485.6,472.7,486.4z M432.1,385
		c0.3,0.2,4.1-1.2,5.6-2c0.6-0.3,1.7-1,2.4-1.5c0.8-0.5,1.5-0.9,1.6-0.9c0.6,0,0,2-1.8,5.5c-1.7,3.5-1.8,3.6-3.9,5.7
		c-1.2,1.2-3.1,2.8-4.3,3.6c-2,1.3-2.3,1.5-3.6,1.6c-2.7,0.3-3.6,0.1-5.1-0.8c-1.5-0.9-1.6-1.1-1.5-2.4c0.1-0.9,0-1.3-0.5-2.1
		c-0.3-0.5-0.8-1.1-1.1-1.4c-0.8-0.5-0.6-0.9,1-1.9c0.7-0.5,1.4-1.2,1.5-1.5c0.4-1,3.7-2.8,6.4-3.5c2.4-0.6,4.6-1.7,6.3-3
		c1.1-0.9,4.4-2.9,5.9-3.7c0.5-0.3,0.8-0.3,1-0.2c0.1,0.1-0.3,0.7-1.2,1.4c-0.8,0.7-2.3,2.1-3.5,3.2c-1.8,1.7-2.3,2.1-3.5,2.5
		C432.4,384.3,431.7,384.8,432.1,385z"/>
	<path class="st0" d="M512.7,562.7c0-2.6-0.2-3.6-0.8-3.6c-0.5,0-0.8,1-0.8,3.1c0,1.2-0.2,2.7-0.5,3.9c-0.4,1.7-0.4,2.5-0.3,4.8
		c0.1,1.6,0.2,3.6,0.4,4.6c0.1,1,0.3,2.7,0.4,3.8c0.1,1.1,0.4,3.3,0.6,4.9c0.2,1.6,0.4,3.9,0.5,5.1c0.1,1.2,0.2,2.5,0.3,2.8
		c0.1,0.5,0.1,0.5,0.4-0.2c0.2-0.6,0.4-2.7,0.6-7.6c0.2-3.8,0.5-7.9,0.7-9.2c0.5-3,0.3-4.7-0.7-7.7
		C512.8,565.4,512.7,564.9,512.7,562.7z"/>
	<path class="st0" d="M455,645c-0.1-0.3-2.4-1-3.2-1c-0.3,0-1.4-0.4-2.3-0.8c-1.8-0.9-2.4-0.9-2.5,0.1c-0.1,0.5,2.1,2.6,3.1,3
		c0.7,0.3,0.6,0.3,2-0.1C454,645.7,455.1,645.3,455,645z"/>
	<path class="st0" d="M484.6,666.5c-2-0.7-4.8-1.2-6.9-1.3l-2.2-0.1L474,667c-1.5,1.7-2.6,3.7-3,5.1c-0.1,0.4,0,1.5,0.1,2.5
		c0.3,1.8,0.3,1.8-0.3,2.9c-0.3,0.6-1.3,2-2.2,3.2c-2.1,2.9-2.6,3.8-3.1,6.6c-1.5,7.7-1.6,8.2-2.3,11.1c-0.8,3.1-1.7,7.4-1.7,8.4
		c0,0.5,0.2,1.8,0.4,2.9c0.6,3.6,0.1,7.4-2,13.9c-0.4,1.3-0.9,3.1-1.1,3.9c-0.2,0.8-0.4,1.8-0.6,2.3c-0.3,1.1-0.3,1.6,0.1,2.2
		c0.4,0.6,1.6,0.7,2.4,0.2c0.3-0.2,1.4-1.4,2.6-2.9c1.1-1.4,2.6-3.2,3.2-3.9c0.6-0.8,1.8-2.3,2.7-3.5c1.5-2.1,2.1-2.6,4.5-4
		c2.9-1.6,3.7-2.1,4.2-2.6c0.3-0.3,1-1.5,1.6-2.8c0.6-1.3,1.6-2.9,2.1-3.7c0.6-0.8,1.6-2.5,2.3-3.8c0.7-1.3,1.6-3,2.1-3.6
		c0.8-1.1,0.9-1.5,1.1-3.8c0.4-3.5,0.4-4.1-0.1-4.5c-0.6-0.4-1-0.3-2.1,0.7c-1,0.9-1.1,0.9-1.6,0.3c-0.3-0.3-0.9-0.8-1.6-1.1
		l-1.1-0.6l-0.3-1.6c-0.2-0.9-0.4-2-0.5-2.5c-0.3-0.9-0.3-0.9-1.4-1c-1.5-0.2-2-0.5-2.4-1.5c-0.5-1.6,0-5.1,0.9-5.8
		c0.9-0.7,7.1-3.6,7.7-3.6c0.6,0,2.5-2.1,3.3-3.6c1-1.8,1.5-3.9,1-4.4C488.7,668.1,486.5,667.2,484.6,666.5z"/>
	<path class="st0" d="M460,682.3c0.1-0.1-0.3-0.3-0.8-0.4c-0.5-0.2-1.2-0.5-1.6-0.7c-0.8-0.5-1.4-0.6-1.6-0.2s0.4,0.9,1.6,1.2
		C458.9,682.6,459.8,682.6,460,682.3z"/>
	<path class="st0" d="M493.8,605.5c0.5-0.6,0.6-2.2,0.1-2.5c-0.5-0.3-1.4-0.3-1.8,0.1c-0.5,0.4-2.6,4.1-2.6,4.5
		c0,0.2,0.1,0.3,0.3,0.3C490.2,608,493.3,606,493.8,605.5z"/>
	<path class="st0" d="M461.8,679.7c0.6,0.2,0.8,0.1,0.7-0.3c-0.1-0.2-0.3-1.1-0.4-2c-0.3-2-0.9-3.9-2-6.3c-1.1-2.5-1.5-2.7-4.8-2.3
		c-3.9,0.4-4.1,0.6-3.7,3.9c0.1,1.1,0.4,2.3,0.6,2.6c0.2,0.3,0.8,0.8,1.4,1.1c0.6,0.3,1.4,0.9,1.7,1.4c0.8,1.2,1.3,1.4,4,1.6
		C460.6,679.5,461.7,679.7,461.8,679.7z"/>
	<path class="st0" d="M490.9,646.3c-0.2,0.2-1.8,6.9-2.8,11.3c-0.5,2.4-0.9,2.6-7,3.7c-0.9,0.2-1.5,0.4-1.5,0.5
		c0,0.1,0.5,0.4,1.1,0.5c1.6,0.4,4.7,1.1,6.6,1.5c0.9,0.2,2.5,0.6,3.5,0.8c1,0.2,1.9,0.4,2.1,0.4c0.4,0,0.9-0.9,1.2-2.3
		c0.4-2.3-0.5-9.6-1.8-13.5C491.4,646.6,491.1,646.1,490.9,646.3z"/>
	<path class="st0" d="M488.6,613.4c0,0.2,0.1,0.4,0.2,0.4c0.4,0,1.4-0.8,1.2-1C489.8,612.5,488.7,613,488.6,613.4z"/>
	<path class="st0" d="M406.4,621.5c-0.4-0.2-1.2-0.8-1.6-1.3c-1-1.2-2.5-2.1-4.8-2.6c-2.6-0.6-2.6-0.6-2.4-1.6
		c0.3-1.4,0.2-3.9-0.2-4.7c-0.5-1-0.5-1.1,0.3-1.4c0.4-0.2,1.3-0.9,2-1.8l1.3-1.5l-0.5-1.1c-0.3-0.6-0.7-1.3-0.9-1.7
		c-0.2-0.4-0.6-1-0.8-1.5c-0.5-1.1-1-1.6-1.8-2c-0.9-0.4-2.9-0.8-3.3-0.5c-0.4,0.2-1.1,2-1.1,3c0,0.6-0.1,0.8-0.6,1.1
		c-0.6,0.3-1.7,1.4-2.2,2.3c-0.2,0.4-0.3,0.4-0.7-0.3c-0.5-0.7-4.2-4.6-4.4-4.6c-0.3,0-0.1,3.5,0.2,4.9c0.2,0.8,0.5,1.7,0.8,2.1
		c1,1.3,1.8,3,1.8,3.9c0,0.8,0.5,2.7,1,3.9c0.2,0.4,0.1,0.4-1.9,0.3c-1.6-0.1-2.1-0.1-2.2,0.2c-0.3,0.7,0.2,1.8,1.5,3.5
		c0.8,1,1.7,2.5,2.1,3.4c1.5,3.2,3.7,4.6,8.8,5.7c3.5,0.8,6.1,0.2,7.9-1.8c0.5-0.6,1.3-1.2,1.7-1.4c1.2-0.6,1.8-1.4,1.8-2.5
		C408.2,622.7,407.7,622.1,406.4,621.5z"/>
	<path class="st0" d="M478,499c1.4,1,1.9,1.1,1.6,0.3c-0.2-0.6-1.2-2-1.5-2.1c-0.4-0.2-1.5,0.3-1.4,0.6
		C476.8,498,477.4,498.5,478,499z"/>
	<path class="st0" d="M482.1,514.3c1.1,0.6,1.8,0.7,2.2,0.2c0.4-0.4,0.1-1.1-0.7-1.8c-1.2-0.9-3.7-1.4-3.7-0.7
		C479.8,512.5,481,513.6,482.1,514.3z"/>
	<path class="st0" d="M474.9,525.4c0.7,0.4,1.4,0.6,1.6,0.6c0.5-0.1,0.3-0.9-0.4-2.3c-0.7-1.4-1.6-1.9-2.5-1.3
		C472.4,523.1,472.9,524.4,474.9,525.4z"/>
	<path class="st0" d="M433.9,467.3c0.7,1.3,1.4,2.2,2.4,3.2c0.8,0.8,1.5,1.4,1.7,1.4c0.6,0,0.5-0.3-1.6-4.3c-0.6-1-1.1-2.3-1.3-2.7
		c-0.5-1.3-1.1-2-2.5-2.9c-2-1.3-4.2-2.4-4.4-2.2c-0.2,0.2,0.9,1.4,3.4,4.2C432.4,464.8,433.4,466.2,433.9,467.3z"/>
	<path class="st0" d="M463.2,513.5c0.6,0.6,1.5,1.8,1.9,2.5c0.5,0.8,1.1,1.6,1.3,1.8c0.7,0.8,1,0.5,0.9-1l-0.1-1.2l0.5,0.4
		c0.7,0.4,3,1.2,3.7,1.3c0.3,0,0.5-0.1,0.5-0.3c0-0.5-1.4-3.2-2-3.9c-0.3-0.4-0.7-1-0.8-1.5c-0.1-0.4-0.5-1.3-0.9-2
		c-0.4-0.7-1-1.8-1.3-2.5c-0.9-1.8-2.1-3.3-2.7-3.5c-1.1-0.3-1.9,1.1-1.9,3.1c0,0.4-0.1,1.2-0.3,1.6c-0.4,0.9-0.4,2.5-0.1,3.4
		C462,512.1,462.6,512.9,463.2,513.5z"/>
	<path class="st0" d="M483.9,539.1c-0.3,0.4-0.3,0.9-0.2,2.8c0.1,1.3,0.2,2.8,0.3,3.4c0.1,0.5,0.1,1.1,0,1.2
		c-0.4,0.5-1.9-0.3-3.2-1.6c-1-1.1-1.4-1.4-1.8-1.3c-0.4,0.1-0.5,0.2-0.6,1c-0.1,1.7,1.3,3.6,3.4,4.5c0.7,0.3,1,0.6,1.1,1
		c0.4,1.8-1,4.1-4,6.4c-2.8,2.2-4.8,4.3-5.1,5.3c-0.1,0.6-0.1,1.4,0,2.5c0.1,0.9,0.3,2.3,0.4,3c0.1,0.7,0.1,2.7,0.1,4.2
		c-0.1,3.1,0.2,5.4,1,8.7c0.3,1,0.6,2.8,0.7,4c0.1,1.2,0.4,3,0.7,4c0.7,3.2,1.3,7.2,1.9,12.3c0.6,5.5,1.2,10.3,1.5,11.2
		c0.4,1.3,0.8,0.9,0.4-0.4c-0.1-0.5-0.3-2.9-0.5-5.2c-0.5-9.2-0.9-15.3-1.4-19.9c-0.2-1.7-0.4-5.1-0.5-7.4l-0.1-4.3l0.8-1.6
		c1.1-2.1,2.8-4.6,3.7-5.2c0.9-0.6,2.9-1.1,3.2-0.8c0.2,0.2,0.6,1.6,1.3,5c0.2,0.8,0.2,1.2-0.1,1.9c-0.5,1.3-0.4,2.3,0.1,2.8
		c0.5,0.5,0.5,0.6,0.2,2c-0.1,0.8-0.4,2-0.5,2.7c-0.3,1.6,0,2,0.7,0.7c0.3-0.5,0.9-1.7,1.5-2.5c0.8-1.3,1-1.8,1-2.6
		c0-0.6-0.1-1.1-0.3-1.3c-0.4-0.4-0.4-0.8,0-1.5c0.7-1.1,0.3-7.4-0.7-11.8c-0.3-1.3-0.6-2.7-0.7-3.2c-0.1-0.5-0.4-1.7-0.7-2.6
		c-0.5-1.5-0.5-1.8-0.3-3.3c0.1-0.9,0.4-2.4,0.6-3.2c0.6-2.1,0.6-3.6-0.1-5.4c-0.8-2.1-1.9-4-2.5-4.5c-0.3-0.2-0.5-0.5-0.5-0.6
		c0-0.2-0.2-0.4-0.4-0.6C484.3,538.7,484.2,538.7,483.9,539.1z"/>
	<path class="st0" d="M466.6,538.3c-0.3,0.8-0.3,1,0,1.3c0.3,0.3,0.4,0.3,0.9-0.4c0.8-0.9,0.8-1.9-0.1-1.9
		C467,537.3,466.9,537.5,466.6,538.3z"/>
	<path class="st0" d="M489.2,540.7c0.1-0.8-1.4-3.5-1.9-3.5c-0.6,0-0.2,3,0.6,3.9C488.4,541.7,489.1,541.5,489.2,540.7z"/>
	<path class="st0" d="M438.6,479.3c3.9,1.4,11.7,5.7,14.4,7.9c0.6,0.5,1.3,0.7,1.3,0.4c0-0.8-4.4-5.3-6.9-6.9
		c-2.2-1.4-5.7-3.2-7.3-3.6c-1.8-0.4-5.9-1-9-1.2c-1.9-0.1-2.7-0.1-3.2,0.2l-0.8,0.3l1,0.1C430.7,476.9,435.5,478.1,438.6,479.3z"/>
	<path class="st0" d="M347,656.6c-0.3-0.2-0.4-0.1-0.6,0.8c-0.5,2-1.7,3.9-3.9,6.3c-2.5,2.7-3.1,3.6-3.5,5.4
		c-0.3,1.5-0.4,1.6-3.1,3.6c-3.1,2.3-4.3,3.6-5.2,5.7c-0.4,1-0.8,2.4-0.9,3.2c-0.1,0.8-0.5,2.3-0.9,3.2c-2.1,5.7-2.5,6.9-2.4,8
		c0.1,1.1,2.2,5.8,3.5,8.1c0.7,1.2,0.8,1.5,0.7,2.1c-0.1,0.4-0.4,2-0.6,3.5c-0.3,1.5-0.6,3.3-0.7,4c-0.3,1.4-0.3,3.2-0.1,3.5
		c0.3,0.3,0.4,0.1,1-1.2c0.3-0.8,1.5-3,2.6-5c1.6-2.8,2.2-3.8,2.9-4.3c0.7-0.5,1.2-1.3,2.1-3.1c0.7-1.4,1.6-3,2-3.7
		c0.4-0.7,1-2.4,1.5-3.8c0.4-1.4,1.3-3.8,1.9-5.4c1-2.5,2.1-5.6,2.1-5.9c0-0.4-0.7,0.1-1.9,1.2l-1.3,1.3l0.2-1.3
		c0.1-0.7,0.2-2.8,0.2-4.6c0-3,0.1-3.3,0.6-4.4c0.3-0.6,0.7-1.5,0.9-1.9c0.2-0.4,0.7-1.5,1.2-2.5c1.2-2.1,1.4-3,1.7-6.3
		C347.3,657.2,347.3,656.9,347,656.6z"/>
	<path class="st0" d="M338.7,657.8c2.3-1.4,3.1-2.6,3.9-6c0.7-3,0.9-4.1,0.7-4.3c-0.4-0.3-4.9,4.4-5.6,5.9c-0.4,0.8-0.7,3.4-0.5,4.8
		C337.2,658.7,337.3,658.7,338.7,657.8z"/>
	<path class="st0" d="M487.5,515.8c0.3,0.1,0.7,0.7,1,1.2c0.7,1.3,1.1,1.7,1.9,2.1c0.5,0.2,0.8,0.7,1.2,1.5c0.3,0.7,0.8,1.6,1.1,2.2
		c0.5,0.7,0.7,0.9,1.1,0.9c0.9-0.1,1-1.1,0.3-3.2c-0.6-2-1.5-3.2-2.2-3.2c-0.2,0-0.8-0.4-1.3-0.9c-0.9-0.8-2.1-1.4-3.1-1.4
		C486.8,515,486.9,515.6,487.5,515.8z"/>
	<path class="st0" d="M490.1,590.8c0.9-1.1,1.2-1.7,1.2-2.4c0-0.6-0.4-0.9-0.9-0.6c-0.4,0.2-1.3,2.4-1.3,3.2
		C489,591.8,489.3,591.8,490.1,590.8z"/>
	<path class="st0" d="M489,581.5c-0.4,0.6-1.6,4.5-1.6,5.4c0,0.8,0.3,0.6,1.5-1c1.6-2.1,2.1-3,2.1-3.8
		C491,580.8,489.8,580.4,489,581.5z"/>
	<path class="st0" d="M370.9,537.1c0.4,0.7,0.9,1.6,1.2,2c1.1,1.2,2.3,0.7,2.8-1.1c0.5-1.7,0.4-2.2-1.4-5c-0.9-1.4-2-3.1-2.4-3.7
		c-0.7-1.2-1.2-1.6-1-0.7c0.2,0.7,0.2,1.9,0.1,4.8C370.3,535.6,370.3,535.8,370.9,537.1z"/>
	<path class="st0" d="M370.5,460.9c0.1,0,0.2-0.3,0.2-0.6c0-0.3-0.1-0.6-0.2-0.6s-0.2,0.3-0.2,0.6
		C370.3,460.6,370.4,460.9,370.5,460.9z"/>
	<path class="st0" d="M370.7,664.1c-0.5-3.8-1.2-4-2.2-0.7c-0.4,1.2-0.9,2.2-1.5,3c-1.5,1.9-2,3.3-2.2,5.7c-0.1,1.2-0.3,2.2-0.3,2.3
		c-0.1,0.1-0.2,2.7-0.2,5.8c-0.1,6.4-0.3,9.9-0.6,11.8c-0.1,0.8-0.2,1.7-0.2,2.2c0,2,0.5,0.6,1.7-4.3c1-4.1,1.2-5.1,2-7.3
		c0.4-1.2,1-2.7,1.3-3.2c1.1-1.9,1.5-3.3,1.6-5.6c0.1-1.5,0.3-2.9,0.7-4.1c0.4-1.3,0.5-2.1,0.4-2.6
		C371.1,666.8,370.8,665.4,370.7,664.1z"/>
	<path class="st0" d="M367.6,541.1c0.7,0.8,0.8,0.4,0.6-2.9c-0.3-5.4-0.7-7.2-1.6-6.9c-0.8,0.3-1.3,3.9-0.9,5.8
		C366,538.3,367,540.4,367.6,541.1z"/>
	<path class="st0" d="M356.1,695.6c-0.2-2-0.5-4.4-0.6-5.4c-0.1-1-0.2-2.3-0.2-2.8c0-0.6-0.1-1.3-0.2-1.7c-0.2-0.6-0.3-0.6-0.5-0.2
		c-0.6,1-2.9,11.9-2.9,13.5c0,0.6,0.1,1.8,0.2,2.6l0.2,1.6l-1.2,2.5c-1.8,3.8-2,4.6-1.8,9.9c0.3,5.6,0.4,5.7,1.8,1.1
		c1.1-3.4,1.1-3.6,1.6-3.2c0.9,0.7,1.1,1.6,1.1,4.4c0,2,0.1,2.8,0.3,3.1c0.2,0.2,0.5,0.4,0.7,0.3c0.3-0.1,0.4-0.6,0.5-2.9
		c0.1-2.8,0.2-2.8,1.1-4.6c0.6-1.1,1-2.3,1.2-3.2c0.3-1.9,0.1-7-0.5-9.4C356.7,700.1,356.3,697.6,356.1,695.6z"/>
	<path class="st0" d="M376.4,604.7c0-0.4-1.2-3.2-3.1-6.9c-1.1-2.2-2.2-4.5-2.3-5.2c-0.5-1.9-1.1-3.8-1.8-5.3
		c-0.6-1.4-0.6-1.5-0.2-2.5c0.7-2,0.8-2.7,1-6.5c0.1-2.8,0.3-4.5,0.7-6.2c0.4-1.8,0.5-2.9,0.5-5.6c0-3.8-0.4-10.9-0.8-13
		c-0.1-0.8-0.3-2.4-0.4-3.6l-0.1-2.2l-0.4,0.8c-0.2,0.5-0.4,0.9-0.4,0.9c0,0.1-0.5,1.1-1,2.2c-0.6,1.1-1.2,2.8-1.4,3.6
		c-0.5,2.3-1.4,5-2,6.3c-0.7,1.5-2.8,6.9-3.3,8.6c-0.6,2-1.1,2.7-2.8,4.3c-2,2-2.2,2.4-1.6,5.7c0.2,1.4,0.5,3.9,0.7,5.5
		c0.3,3.5,0.8,5.7,2.4,9.3c0.6,1.3,1.4,3.4,1.8,4.5c0.4,1.1,1.1,2.8,1.6,3.8c0.5,1,1.4,3.4,2,5.3c1.7,5.1,3.3,9.3,4,9.9
		c0.6,0.6,1.1,0.7,1.7,0c0.5-0.5,0.5-0.6,0.3-6.1c-0.1-4.2-0.3-6.2-0.6-8c-0.4-1.9-0.4-2.8-0.3-4.4c0.1-1.1,0.2-2,0.3-2
		c0.2,0,3.2,3.7,4.3,5.4C375.9,604.7,376.4,605.1,376.4,604.7z"/>
	<path class="st0" d="M413,473.3c0.1,0.9,0.3,1.2,1.2,2.1c0.9,0.8,1.1,1,1.6,0.9c0.3-0.1,0.8,0,1,0.1c1.9,1.1,3-2,1.6-4.4
		c-0.5-0.8-1.2-1.2-2.3-1.5c-0.4-0.1-0.9-0.4-1.1-0.6c-0.9-1.1-4.3-3-4.6-2.7c-0.3,0.3,0.6,2.5,1.6,3.9
		C412.5,471.8,412.9,472.6,413,473.3z"/>
	<path class="st0" d="M367.7,623.4c-0.8-1-2.2-3.5-3.8-6.6c-0.6-1.1-1.8-2.4-2.2-2.3c-0.6,0.2-0.4,1.5,1.2,7.1
		c0.4,1.3,0.5,2.4,0.5,5.2c0.1,3.5,0.1,4.4,0.7,6.4c0.2,0.6,0.3,1.3,0.2,1.3c-0.1,0.1-0.7-0.1-1.4-0.5c-2.3-1.1-3.5-3.7-3.8-7.9
		c-0.1-1.1-0.3-2.8-0.5-3.8c-0.6-3-0.6-4.5-0.1-7.3c0.3-1.4,0.7-3.1,1-3.8c0.7-1.5,0.9-3,0.6-4.2c-0.1-0.5-0.5-2.1-0.9-3.5
		c-0.4-1.4-0.9-3.6-1.2-4.9c-0.3-1.3-0.6-2.3-0.7-2.3c-0.2,0-0.4,2.3-0.4,4.3c0,1.3-0.1,1.9-0.8,3.5c-1.4,3.4-1.4,3.5-1.4,6
		c0,2.1-0.1,2.7-0.6,4.2c-0.6,1.9-0.8,4.2-0.4,5.8c0.2,0.7,0.1,1-0.2,1.7c-1.1,2.2-2,6.8-2.1,10.8c-0.1,2.2,0,2.5,0.6,3.7
		c0.7,1.5,2.4,3.1,4.7,4.5c1.1,0.7,1.7,1.2,2.1,1.9c0.6,1.1,3.3,3.4,5.4,4.6c1.6,0.9,1.8,1.2,3.4,4.3c0.5,1,1,1.9,1.1,2.1
		c0.6,0.8,0.9,0.2,1.6-4c0.2-1.4,0.2-2,0-3c-0.2-1-0.3-1.8,0-4.2c0.1-1.6,0.4-3.5,0.6-4.2c0.3-0.9,0.4-2.1,0.4-4.6
		c0-2.9-0.1-3.6-0.5-5C370.5,627.3,369.7,626,367.7,623.4z"/>
	<path class="st0" d="M386.4,445.7c-0.1-0.1-0.7,0.1-1.3,0.2c-0.7,0.2-1.6,0.3-2.1,0.3c-0.9,0-3.1,0.7-3.9,1.3
		c-0.3,0.2-0.6,0.3-0.8,0.3c-0.5,0-0.5,0.3-0.1,0.6c0.2,0.1,0.8,0.3,1.4,0.3c2,0.2,3.1-0.1,5.1-1.4
		C385.9,446.6,386.6,445.9,386.4,445.7z"/>
	<path class="st0" d="M384.5,443.5c1.4-0.6,1.8-1.6,0.3-1c-0.9,0.4-1.3,0.7-1.3,1C383.5,443.9,383.5,443.9,384.5,443.5z"/>
	<path class="st0" d="M376.4,494c0,0.6,0.5,0.4,1.5-0.4c0.6-0.5,1.2-0.9,1.3-0.9c0.3,0,0.4,0.7,0.7,3.8c0.1,1,0.3,2.2,0.5,2.5
		c0.4,0.8,0.6,0.7,0.7-0.7c0.1-1.1,0.5-2.9,1.1-4.1c0.8-1.8,1.8-4.4,2-5.1c0.3-1.3,1.9-4.9,3-6.8c0.6-1,1-1.9,1-2.1
		c-0.3-1.6-4.2,1.5-5.8,4.6c-0.5,0.9-2.4,3.5-3.5,4.7C378.1,490.1,376.4,493.5,376.4,494z"/>
	<path class="st0" d="M378.4,481.3c-0.6,0.3-2.1,2.6-1.9,2.9c0.2,0.3,0.5,0.2,1.6-0.7c1.2-1,1.6-1.7,1.1-2.2
		C379,481.1,378.8,481.1,378.4,481.3z"/>
	<path class="st0" d="M373.7,481c0.3-0.8,0.8-2,1-2.6c0.8-2.5,1.1-3.2,1.8-4c1.6-1.8,2.6-3.4,2.7-4.1c0-0.9-0.1-0.9-1.3-1
		c-0.6,0-1.5-0.1-2.1-0.2c-2.5-0.3-4.5,1.5-4.5,4.1c0,1,1,7.9,1.3,9C372.6,482.7,373.1,482.3,373.7,481z"/>
	<path class="st0" d="M386.1,505.2c1.5,0.9,1.9,0.4,1-1.3c-0.3-0.6-0.7-0.9-1-1c-0.6-0.2-1.2,0.2-1.2,0.8c0,0.5-0.1,0.5-0.8,0
		c-0.7-0.6-1.5-0.6-2.4,0c-1.1,0.7-1.5,1.6-1.3,2.6c0.2,0.9,2.1,3,4,4.2c0.6,0.4,1.3,0.7,1.5,0.7c0.4,0,0.4,0,0-0.6
		c-0.4-0.7-0.4-0.7,0.2-1.1c0.8-0.6,0.8-1.4-0.1-3C385.1,504.8,385.1,504.6,386.1,505.2z"/>
</g>
</svg>
